<?xml version="1.0" standalone="no"?>
<!DOCTYPE svg PUBLIC "-//W3C//DTD SVG 20010904//EN"
 "http://www.w3.org/TR/2001/REC-SVG-20010904/DTD/svg10.dtd">
<svg version="1.0" xmlns="http://www.w3.org/2000/svg"
 width="719.000000pt" height="1280.000000pt" viewBox="0 0 719.000000 1280.000000"
 preserveAspectRatio="xMidYMid meet">

<g transform="translate(0.000000,1280.000000) scale(0.100000,-0.100000)"
fill="#000000" stroke="none">
<path d="M4775 12010 c-16 -4 -24 -8 -17 -9 7 0 11 -5 7 -10 -10 -18 18 -24
31 -7 8 12 14 14 19 6 9 -15 -12 -39 -52 -55 -26 -11 -32 -19 -31 -39 3 -30
10 -32 28 -11 7 8 17 15 23 15 5 0 2 -10 -9 -22 -19 -21 -19 -21 4 -16 43 11
26 -14 -45 -66 -29 -21 -53 -40 -53 -42 0 -2 10 -2 23 0 12 3 64 10 115 17 51
7 95 15 97 20 3 4 0 20 -6 36 -6 15 -13 44 -15 63 -2 19 -11 42 -21 50 -10 9
-25 29 -33 45 -17 33 -24 35 -65 25z m25 -209 c0 -5 -14 -14 -30 -20 -21 -7
-29 -7 -24 0 5 8 33 24 52 28 1 1 2 -3 2 -8z"/>
<path d="M4704 11959 c-19 -22 -19 -22 4 -10 12 6 22 16 22 21 0 15 -5 12 -26
-11z"/>
<path d="M4649 11949 c-11 -11 -18 -23 -15 -27 4 -3 19 6 34 21 14 15 21 27
14 27 -6 0 -21 -9 -33 -21z"/>
<path d="M1580 11845 c7 -8 17 -15 22 -15 6 0 5 7 -2 15 -7 8 -17 15 -22 15
-6 0 -5 -7 2 -15z"/>
<path d="M1515 11834 c-9 -9 -14 -22 -11 -29 3 -8 -2 -16 -10 -19 -11 -4 -13
-15 -8 -43 4 -21 11 -40 16 -42 5 -1 3 -10 -5 -20 -8 -9 -18 -30 -21 -46 -6
-26 -3 -33 24 -48 33 -20 39 -37 14 -37 -23 0 -45 -26 -38 -44 3 -9 9 -16 13
-16 3 0 6 -19 5 -42 -1 -24 3 -50 7 -59 5 -9 4 -30 0 -47 -6 -18 -5 -49 1 -77
8 -38 7 -49 -3 -56 -12 -8 -11 -12 4 -23 9 -7 17 -21 17 -30 0 -25 19 -19 26
9 5 20 11 24 29 19 18 -4 26 0 35 17 11 19 9 25 -11 40 -13 10 -28 19 -33 19
-5 0 -3 6 3 14 6 7 9 20 5 29 -4 11 1 16 17 19 29 4 38 28 10 28 -14 0 -19 5
-15 15 4 10 0 15 -12 15 -14 0 -15 3 -6 12 16 16 15 28 -3 28 -18 0 -19 12 -3
28 9 9 8 12 -6 12 -15 0 -16 3 -6 15 6 8 9 19 5 25 -3 5 1 13 9 16 9 3 13 10
10 15 -2 5 0 18 6 30 9 16 8 24 -5 39 -10 11 -27 20 -39 22 -11 2 -19 8 -17
13 4 10 22 10 69 -1 33 -7 19 12 -26 36 -35 18 -36 20 -14 26 23 7 27 15 15
28 -8 7 -12 36 -15 99 -1 31 -10 34 -33 11z m55 -264 c0 -5 -2 -10 -4 -10 -3
0 -8 5 -11 10 -3 6 -1 10 4 10 6 0 11 -4 11 -10z"/>
<path d="M4780 11738 c-122 -29 -129 -45 -17 -39 44 3 47 -10 10 -38 l-28 -21
35 6 c33 5 34 5 16 -10 -11 -9 -16 -19 -13 -23 4 -4 -7 -13 -25 -22 l-33 -15
33 -4 c29 -3 32 -6 26 -25 -8 -28 -3 -23 -54 -46 -37 -17 -41 -21 -25 -26 55
-18 74 -28 70 -35 -3 -5 -1 -11 5 -15 16 -10 1 -25 -25 -25 -32 0 -91 -35 -75
-45 6 -4 26 -4 45 -1 19 4 36 2 40 -4 3 -5 2 -10 -4 -10 -6 0 -8 -7 -5 -15 5
-11 -1 -15 -20 -15 -18 0 -24 -4 -20 -15 5 -11 -1 -15 -25 -15 -39 0 -41 -16
-3 -25 15 -3 47 -23 70 -44 l42 -39 -44 -11 c-50 -12 -78 -37 -57 -51 17 -10
6 -30 -17 -31 -9 0 3 -10 27 -22 53 -27 57 -41 14 -45 -39 -4 -42 -15 -8 -30
38 -18 32 -35 -10 -28 -19 4 -35 3 -35 -2 0 -16 36 -42 66 -48 38 -7 55 12 61
69 3 23 9 49 13 56 4 8 4 25 0 37 -7 17 -3 26 21 43 16 12 35 19 41 15 7 -4 8
-3 4 4 -9 15 9 15 35 2 14 -8 19 -7 21 2 3 29 4 34 15 54 10 16 8 22 -8 32
-19 12 -26 42 -12 55 3 4 12 2 18 -3 9 -7 16 -6 25 5 10 12 9 16 -3 21 -18 7
-20 39 -4 73 9 19 8 25 -6 36 -14 10 -15 14 -5 18 11 4 10 7 -1 15 -11 8 -11
10 0 14 12 4 12 7 0 21 -10 13 -11 24 -2 48 15 44 14 69 -4 69 -11 0 -12 5 -5
25 6 17 6 33 -2 50 -8 19 -8 28 3 42 9 11 10 14 2 9 -9 -5 -13 1 -13 18 0 23
-4 26 -32 25 -18 0 -71 -10 -118 -21z"/>
<path d="M4718 11623 c7 -3 16 -2 19 1 4 3 -2 6 -13 5 -11 0 -14 -3 -6 -6z"/>
<path d="M4600 11370 c-26 -16 -3 -22 27 -6 23 13 24 15 8 15 -11 1 -27 -3
-35 -9z"/>
<path d="M1648 11283 c7 -3 16 -2 19 1 4 3 -2 6 -13 5 -11 0 -14 -3 -6 -6z"/>
<path d="M1560 11161 c0 -5 5 -13 10 -16 6 -3 10 -2 10 4 0 5 -4 13 -10 16 -5
3 -10 2 -10 -4z"/>
<path d="M4728 10883 c-10 -2 -18 -9 -18 -14 0 -15 53 -6 58 9 4 12 -8 14 -40
5z"/>
<path d="M3900 10693 c-83 -14 -175 -70 -252 -152 -36 -38 -37 -41 -23 -68 13
-24 12 -29 -2 -45 -14 -16 -14 -18 3 -24 11 -3 39 -15 64 -27 46 -21 127 -27
138 -11 11 15 35 10 96 -21 58 -29 58 -29 89 -11 18 10 55 24 82 31 68 18 156
52 178 69 17 13 18 18 6 53 -18 51 -65 117 -94 133 -14 7 -22 16 -20 21 5 7
-24 21 -100 45 -38 13 -112 16 -165 7z m60 -165 c0 -26 -16 -36 -65 -39 -41
-3 -50 -1 -53 14 -4 21 28 35 81 36 23 1 37 -4 37 -11z"/>
<path d="M2324 10668 c-3 -5 -20 -8 -37 -5 -55 8 -158 -29 -180 -64 -6 -10
-15 -19 -19 -19 -20 0 -47 -42 -58 -91 -7 -30 -16 -62 -22 -72 -7 -14 -5 -24
9 -39 26 -29 72 -51 96 -44 11 3 33 -2 49 -10 16 -9 45 -14 63 -13 21 2 41 -3
53 -14 26 -24 44 -21 77 13 15 16 32 27 37 24 4 -3 8 -1 8 5 0 6 23 10 58 8
80 -3 116 17 120 66 2 20 7 37 13 37 5 0 9 5 9 10 0 6 -9 10 -20 10 -13 0 -20
7 -20 20 0 12 -7 34 -15 49 -15 31 -106 101 -129 101 -8 0 -17 4 -20 9 -10 16
-65 31 -72 19z m64 -166 c7 -5 10 -16 6 -25 -5 -13 -19 -17 -55 -17 -46 0 -49
2 -49 25 0 23 4 25 43 25 23 0 48 -4 55 -8z m-210 -95 c4 -19 -27 -49 -40 -41
-10 6 -10 48 -1 58 12 12 38 1 41 -17z"/>
<path d="M4932 10606 c-6 -14 -28 -44 -48 -66 l-38 -42 19 -34 c10 -19 23 -33
29 -31 19 6 53 90 58 145 5 56 -2 67 -20 28z"/>
<path d="M7145 10550 c3 -5 0 -10 -8 -10 -7 0 -14 -6 -14 -12 -1 -15 -49 -234
-64 -290 -5 -21 -19 -43 -30 -49 -19 -10 -19 -12 -5 -28 13 -15 14 -20 2 -36
-19 -26 -51 -13 -41 18 4 12 7 31 8 42 3 27 -34 32 -56 7 -18 -20 -57 -157
-57 -201 0 -14 -7 -45 -15 -67 -8 -23 -23 -84 -34 -135 -23 -114 -40 -156 -78
-190 -42 -40 -63 -48 -178 -69 -206 -37 -234 -68 -400 -460 -58 -137 -109
-253 -124 -280 -10 -18 -5 -18 -325 -20 -227 -1 -260 1 -276 15 -19 17 -99 23
-122 9 -7 -4 -24 -8 -39 -8 -15 -1 -30 -4 -33 -7 -4 -3 -31 -4 -61 -2 -69 5
-70 -4 -7 -72 26 -28 75 -87 110 -131 35 -43 87 -107 115 -141 l52 -63 130 0
c88 0 151 -5 190 -16 49 -13 100 -15 288 -11 125 2 229 2 231 -2 2 -3 0 -40
-5 -81 -4 -41 -11 -123 -14 -182 -7 -104 -7 -106 -33 -114 -15 -5 -124 -9
-242 -10 -118 -2 -237 -7 -265 -13 -28 -6 -217 -10 -432 -11 -340 0 -383 -2
-398 -16 -11 -12 -13 -19 -5 -24 6 -4 8 -14 4 -23 -4 -12 -1 -17 10 -17 19 0
21 -30 4 -49 -11 -11 -9 -13 10 -8 17 4 21 2 14 -6 -13 -18 -2 -108 14 -114
19 -7 18 -23 -1 -23 -8 0 -15 -4 -15 -10 0 -5 5 -10 10 -10 6 0 18 -18 27 -40
10 -22 21 -40 25 -40 5 0 8 -7 8 -15 0 -8 -5 -15 -11 -15 -7 0 0 -9 15 -21 14
-11 26 -29 26 -40 0 -11 4 -27 9 -37 17 -34 44 -132 38 -138 -3 -4 5 -22 18
-42 18 -26 22 -39 14 -49 -8 -9 -5 -22 11 -48 13 -22 17 -35 10 -35 -9 0 -10
-4 -1 -13 8 -10 7 -17 -1 -25 -17 -17 -9 -21 68 -32 38 -6 103 -17 144 -25 41
-8 92 -14 113 -15 21 0 54 -7 75 -15 43 -18 182 -152 182 -175 0 -9 7 -25 14
-36 14 -18 17 -17 58 28 60 67 143 112 288 158 69 22 131 43 139 45 11 5 11 9
-3 23 -24 27 -21 37 30 108 59 83 76 94 144 94 31 0 61 5 67 11 6 6 17 12 24
13 37 8 46 18 47 55 1 21 9 51 17 67 8 16 15 36 15 44 0 8 7 28 15 44 8 16 18
54 22 85 3 31 10 67 16 81 6 14 12 34 14 44 2 11 4 21 6 22 1 1 72 3 157 5
l155 4 -3 -60 c-2 -33 -7 -82 -13 -110 -18 -96 -18 -138 2 -177 26 -50 24 -81
-7 -117 -14 -17 -27 -42 -30 -55 -2 -14 -8 -36 -13 -49 -5 -14 -13 -57 -17
-96 -6 -65 -5 -71 12 -71 11 0 38 11 61 24 23 13 44 22 47 18 12 -11 -6 -237
-21 -267 -8 -16 -16 -50 -18 -75 -2 -25 -15 -101 -29 -169 l-24 -125 -54 -47
c-36 -33 -47 -48 -35 -49 9 0 17 -7 17 -15 0 -9 6 -12 15 -9 9 4 15 0 15 -10
0 -13 5 -14 26 -6 30 12 35 12 32 3 -3 -8 13 -28 58 -78 12 -12 35 -26 52 -30
18 -3 32 -11 32 -16 0 -5 9 -9 21 -9 11 0 17 -5 14 -10 -3 -6 2 -13 12 -17 10
-4 25 -15 34 -25 9 -10 24 -18 33 -18 15 0 16 133 14 1721 l-3 1721 -31 12
c-17 6 -44 22 -60 34 -28 23 -29 27 -28 104 1 44 6 96 12 116 19 67 55 306 55
368 0 33 -6 71 -13 83 -7 15 -9 37 -5 60 4 20 9 45 11 56 9 65 17 102 24 115
4 8 10 41 14 73 5 47 3 57 -10 57 -8 0 -12 -4 -9 -10z m-200 -760 c3 -5 -1
-10 -9 -10 -9 0 -16 5 -16 10 0 6 4 10 9 10 6 0 13 -4 16 -10z m-37 -678 c3
-16 -2 -22 -17 -22 -24 0 -35 15 -27 36 9 23 40 13 44 -14z m227 -281 c-3 -5
5 -11 17 -13 39 -6 -168 -27 -382 -37 -339 -17 -608 -22 -582 -11 12 5 29 7
37 4 8 -4 15 -2 15 3 0 5 14 7 31 5 20 -3 34 0 40 9 6 10 9 11 9 2 0 -7 8 -13
18 -13 14 0 15 2 2 10 -11 7 -4 10 25 10 29 0 36 -3 25 -10 -11 -7 -7 -10 17
-10 17 0 33 5 35 11 2 7 58 15 148 21 80 5 197 13 260 17 170 12 292 12 285 2z
m-618 -457 c-3 -3 -12 -4 -19 -1 -8 3 -5 6 6 6 11 1 17 -2 13 -5z m127 -61
c-2 -54 -28 -174 -46 -210 -16 -31 -28 -29 -28 5 0 41 29 213 41 240 16 39 34
20 33 -35z m205 -68 c23 -8 56 -24 72 -36 30 -21 47 -27 83 -28 17 -1 18 -9
14 -86 -3 -58 -9 -90 -19 -100 -11 -11 -51 -17 -156 -22 l-142 -6 -6 24 c-12
49 -12 145 1 187 24 82 63 99 153 67z m-1061 -660 c36 -10 20 -30 -28 -33 -52
-4 -74 13 -46 34 11 8 27 12 35 10 9 -2 26 -7 39 -11z"/>
<path d="M1580 10389 c0 -5 5 -7 10 -4 6 3 10 8 10 11 0 2 -4 4 -10 4 -5 0
-10 -5 -10 -11z"/>
<path d="M3120 10250 c-43 -29 -62 -32 -88 -16 -20 12 -70 -3 -100 -31 -19
-17 -28 -21 -31 -11 -2 7 -15 25 -29 41 -31 33 -80 37 -107 7 -10 -11 -24 -20
-31 -20 -7 0 -14 -6 -16 -12 -3 -7 -15 -13 -29 -13 -17 0 -25 -6 -27 -21 -2
-17 7 -26 45 -44 26 -12 55 -28 63 -34 19 -16 126 -46 134 -38 3 3 6 17 7 31
l0 26 10 -25 c7 -17 7 -38 -1 -66 -15 -53 3 -85 60 -108 21 -8 41 -20 45 -26
8 -13 25 -13 25 1 0 6 14 22 32 37 17 14 41 49 53 77 22 47 26 51 89 74 37 13
79 34 95 46 15 13 46 31 69 40 29 12 44 25 48 42 4 13 4 27 0 30 -3 3 -35 5
-70 4 -49 -1 -75 3 -105 18 -55 28 -88 26 -141 -9z"/>
<path d="M4814 9848 c3 -12 0 -18 -9 -18 -19 0 -19 -14 0 -30 11 -9 12 -16 4
-26 -21 -26 -4 -36 24 -14 26 21 37 50 17 50 -5 0 -17 12 -25 28 -9 15 -14 19
-11 10z"/>
<path d="M4315 9820 c3 -5 15 -10 26 -10 11 0 17 5 14 10 -3 6 -15 10 -26 10
-11 0 -17 -4 -14 -10z"/>
<path d="M2782 9805 c-16 -12 -22 -26 -22 -51 l0 -36 45 25 c28 16 55 24 71
21 14 -2 29 -2 35 2 17 10 -9 31 -47 39 -20 3 -41 8 -47 11 -7 2 -22 -3 -35
-11z"/>
<path d="M3224 9809 c-10 -16 20 -41 40 -33 16 6 16 8 0 25 -20 22 -30 24 -40
8z"/>
<path d="M4377 9783 c-10 -17 12 -51 38 -57 57 -14 91 24 40 44 -45 17 -73 22
-78 13z"/>
<path d="M3700 9760 c-8 -16 -8 -20 4 -20 8 0 23 -3 33 -6 14 -5 15 -4 4 4 -8
6 -11 17 -8 26 9 24 -20 20 -33 -4z"/>
<path d="M3352 9758 c-25 -25 -2 -55 33 -42 18 7 18 9 5 35 -12 22 -21 24 -38
7z"/>
<path d="M4838 9753 c-23 -28 -41 -102 -28 -117 5 -8 8 -20 5 -28 -4 -9 1 -18
10 -21 11 -5 14 -14 9 -32 -4 -16 -2 -25 6 -25 6 0 8 -5 5 -10 -4 -6 7 -13 25
-16 34 -7 46 -19 29 -30 -6 -3 -15 -1 -19 6 -9 14 -20 0 -16 -21 6 -31 19 -49
35 -49 30 0 32 -12 4 -36 -26 -22 -26 -23 -9 -48 9 -14 21 -26 27 -26 18 0 38
65 36 118 -2 29 1 52 6 52 5 0 6 8 2 18 -4 9 -8 27 -9 38 -1 12 -7 28 -14 37
-7 8 -11 19 -10 23 2 8 -25 92 -49 154 -4 8 -5 18 -5 23 3 14 -25 7 -40 -10z"/>
<path d="M3039 9693 c0 -21 -3 -33 -5 -26 -7 15 -34 5 -34 -12 0 -7 -11 -20
-25 -29 -16 -11 -25 -12 -25 -5 0 8 -4 8 -15 -1 -12 -10 -15 -10 -15 4 0 24
-19 20 -30 -6 -5 -13 -16 -31 -24 -42 -19 -23 -66 -30 -66 -10 0 8 -7 17 -15
20 -8 4 -15 15 -15 25 0 10 -5 19 -11 19 -5 0 -9 -8 -7 -19 3 -21 -42 -62 -87
-79 -110 -39 -143 -56 -191 -93 -31 -24 -60 -39 -69 -36 -9 4 -24 -7 -41 -28
-14 -19 -30 -35 -34 -35 -12 0 -111 -102 -106 -108 3 -3 21 7 40 21 18 15 40
28 47 29 15 3 22 8 68 48 35 30 51 37 51 22 0 -5 -35 -42 -77 -83 -99 -95
-140 -141 -122 -137 8 2 13 -4 13 -14 -1 -10 3 -18 10 -19 6 0 2 -4 -9 -8 -11
-5 -28 -4 -38 1 -23 12 -27 8 -82 -64 -71 -94 -86 -129 -171 -387 -2 -8 -6
-12 -9 -10 -5 5 38 163 55 204 41 96 66 147 102 205 l40 65 -72 -70 c-89 -87
-207 -242 -254 -333 -13 -25 -14 -37 -6 -47 8 -10 8 -15 0 -20 -8 -5 -8 -11 0
-20 7 -8 9 -19 6 -24 -4 -5 -2 -12 3 -15 5 -3 7 -15 4 -26 -3 -11 0 -20 6 -20
8 0 7 -6 -1 -20 -9 -15 -20 -19 -35 -15 -25 6 -54 -30 -30 -38 9 -3 9 -7 -1
-19 -7 -9 -10 -27 -6 -45 4 -20 1 -33 -7 -38 -8 -6 3 -14 32 -26 24 -10 36
-18 27 -18 -27 -1 -21 -20 7 -27 24 -6 24 -7 8 -20 -17 -13 -17 -13 2 -14 29
0 45 13 55 46 l8 29 1 -29 c1 -28 2 -28 43 -22 43 7 106 51 107 76 1 10 4 11
13 2 8 -8 8 -15 -1 -26 -11 -13 -9 -13 18 -3 16 6 28 14 26 18 -3 3 8 9 23 12
15 3 35 9 45 12 13 6 16 3 11 -9 -7 -19 -58 -48 -68 -39 -7 7 -56 -36 -56 -49
0 -18 37 -7 65 20 16 15 34 26 39 24 18 -6 56 21 56 40 0 10 7 18 15 18 15 0
11 -23 -9 -49 -6 -8 -7 -12 -1 -10 6 3 30 14 55 26 35 15 58 19 98 15 29 -2
52 -9 52 -14 0 -15 41 2 69 28 24 22 27 23 38 8 11 -15 13 -15 28 0 9 9 14 19
12 24 -8 11 20 45 31 38 13 -8 2 -59 -17 -73 -14 -11 -12 -12 12 -13 16 0 26
-4 22 -10 -4 -6 10 -10 35 -10 40 0 42 1 36 25 -5 21 -1 29 23 43 32 18 47 50
31 66 -6 6 -17 1 -30 -14 -11 -13 -20 -19 -20 -13 0 20 38 45 58 38 11 -3 23
-1 27 4 3 7 0 8 -9 5 -22 -8 -20 13 4 43 18 23 25 23 21 1 0 -5 3 -8 8 -8 5 0
11 -10 13 -22 2 -18 10 -23 31 -23 31 -1 47 -18 47 -53 0 -19 4 -22 20 -17 14
5 20 2 20 -9 0 -9 5 -16 11 -16 7 0 8 11 4 29 -3 17 -2 32 4 36 7 4 11 -4 11
-20 0 -15 4 -24 10 -20 6 3 10 -2 10 -12 1 -17 1 -17 14 0 13 16 52 25 42 9
-2 -4 5 -8 17 -9 12 0 17 1 10 4 -7 2 -16 21 -19 41 -7 35 -8 36 -15 12 l-7
-25 -1 28 c-1 15 -7 27 -13 27 -9 0 -9 3 1 9 10 6 21 0 38 -20 25 -29 53 -39
53 -18 0 6 7 9 15 5 8 -3 15 -1 15 5 0 6 6 9 14 6 8 -3 20 1 26 8 7 8 16 13
20 10 4 -3 10 1 13 9 8 20 80 43 85 27 2 -7 10 -1 18 14 14 28 10 49 -16 80
-23 27 -35 65 -20 65 7 0 14 -9 17 -20 9 -32 25 -23 18 9 -5 24 -2 33 14 43
22 13 28 52 11 63 -17 11 -11 28 8 20 13 -5 14 -3 5 6 -17 17 -33 2 -33 -32 0
-40 -22 -33 -31 8 -3 17 -15 44 -27 60 -11 16 -26 51 -33 76 -14 56 -34 76
-25 26 3 -19 3 -29 0 -22 -3 7 -11 10 -18 7 -10 -4 -12 2 -9 20 3 14 2 42 -1
62 -6 31 -9 34 -23 22 -13 -10 -17 -10 -20 0 -3 6 -8 10 -13 7 -5 -3 -7 15 -5
40 3 52 -1 58 -12 14 -5 -16 -12 -30 -17 -29 -14 2 -43 -63 -50 -112 -4 -27
-17 -60 -30 -75 -13 -16 -27 -43 -31 -61 -5 -26 -3 -33 12 -39 10 -3 21 -11
24 -16 10 -15 29 2 23 21 -5 15 -4 15 6 -1 10 -15 7 -22 -14 -42 -19 -17 -26
-34 -26 -60 0 -23 -4 -34 -11 -30 -6 4 -9 28 -6 56 2 27 0 49 -5 49 -4 0 -8
-9 -8 -21 0 -38 -37 -88 -67 -89 -7 0 -10 6 -7 14 4 11 -3 14 -32 11 -21 -1
-40 -8 -42 -14 -2 -6 -8 -11 -14 -11 -6 0 -5 7 3 16 9 11 10 17 1 23 -8 5 -7
13 3 31 26 45 28 52 19 59 -5 3 -16 20 -24 36 -26 52 -38 60 -46 28 -4 -15
-12 -31 -17 -35 -7 -4 -6 -12 2 -22 17 -20 6 -80 -20 -117 -25 -36 -25 -37 16
-36 42 1 50 -5 36 -31 -10 -18 -61 -37 -61 -23 0 3 -10 11 -22 16 -16 7 -24
20 -26 44 -3 31 -5 33 -33 27 -30 -6 -37 2 -17 22 22 22 -20 25 -48 3 -15 -12
-33 -21 -40 -21 -8 0 -14 -4 -14 -9 0 -5 -14 -17 -31 -25 -24 -12 -36 -13 -52
-4 -20 10 -19 11 14 22 23 8 34 17 33 29 -2 14 1 15 12 7 10 -9 18 -7 35 9 25
23 20 50 -11 58 -18 5 -25 26 -21 61 2 10 -2 10 -19 0 -18 -11 -20 -19 -16
-50 7 -46 -12 -52 -20 -8 -5 21 -12 30 -25 30 -11 0 -19 5 -19 11 0 6 7 9 15
5 11 -4 15 1 15 17 0 12 -4 17 -8 12 -4 -6 -13 -10 -19 -9 -7 1 -18 2 -25 3
-7 1 -5 8 5 19 10 10 17 27 17 38 0 11 5 25 12 32 7 7 8 12 2 12 -6 0 -15 -5
-21 -11 -15 -15 -27 39 -12 57 14 17 32 19 24 2 -4 -7 1 -4 9 6 9 11 16 23 16
28 0 4 5 8 11 8 11 0 9 -21 -7 -77 -5 -17 -2 -23 9 -23 8 0 17 7 21 15 3 8 15
15 26 15 12 0 19 4 15 9 -3 5 -1 12 4 15 5 4 12 -7 16 -23 6 -27 9 -29 36 -21
16 5 33 9 37 10 4 1 6 6 5 11 -2 5 4 9 12 9 8 0 15 5 15 11 0 5 -6 7 -12 4 -7
-4 -2 2 12 13 13 11 28 18 32 16 4 -3 5 2 2 10 -3 9 2 17 15 21 16 5 21 15 21
40 0 27 6 39 28 52 38 25 62 56 56 72 -2 8 5 20 16 28 13 9 19 21 15 32 -3 12
5 25 25 41 16 13 30 28 30 34 1 20 88 76 118 76 15 0 33 5 40 12 9 9 12 9 12
0 0 -16 29 -15 35 1 3 6 19 12 36 11 36 -1 81 -42 83 -75 1 -19 7 -24 35 -26
40 -3 74 -30 66 -51 -3 -8 4 -30 15 -50 12 -19 18 -37 15 -40 -3 -3 -5 -1 -5
4 0 5 -13 9 -30 9 -36 0 -35 1 -11 -22 20 -18 44 -100 35 -115 -3 -4 0 -8 7
-8 7 0 9 -3 6 -7 -4 -3 -2 -12 4 -20 8 -9 15 -10 24 -3 10 8 16 2 26 -27 7
-21 13 -49 13 -63 1 -16 12 -31 33 -45 18 -11 30 -26 28 -33 -3 -8 0 -10 7 -6
8 5 9 0 5 -15 -4 -16 -2 -21 7 -18 7 3 23 -4 37 -14 13 -10 30 -19 37 -19 20
0 14 49 -8 62 -11 7 -20 17 -20 21 0 5 9 5 20 2 29 -9 25 9 -5 25 -14 8 -47
39 -73 69 -25 31 -52 60 -59 64 -7 4 -13 13 -13 20 0 7 28 -18 63 -54 34 -36
72 -71 84 -77 22 -12 53 -6 65 12 4 6 12 5 22 -4 21 -17 23 -14 52 62 17 48
23 56 23 35 1 -15 11 -41 23 -57 12 -16 23 -42 25 -57 2 -16 4 -35 5 -44 4
-30 28 -17 25 14 -1 17 4 32 11 34 6 3 12 -3 12 -12 0 -11 5 -15 14 -12 10 4
12 0 9 -14 -3 -10 -12 -19 -19 -19 -8 0 -14 -9 -14 -20 0 -11 5 -20 10 -20 6
0 10 5 10 11 0 8 6 7 17 -2 15 -12 16 -12 10 3 -3 10 -2 20 4 24 6 3 13 -3 16
-15 3 -12 9 -21 13 -21 5 0 6 -9 3 -20 -3 -11 -9 -18 -13 -15 -5 3 -11 -3 -13
-12 -4 -17 -5 -17 -6 0 -1 11 -9 17 -26 17 -21 0 -25 -5 -25 -30 0 -23 8 -35
37 -55 l38 -25 -28 0 c-15 0 -45 9 -67 20 -22 11 -45 20 -52 19 -7 0 -3 -5 10
-11 28 -14 29 -28 0 -20 -16 4 -19 2 -13 -8 6 -10 3 -12 -13 -8 -30 8 -27 -7
6 -30 57 -40 165 -102 188 -108 13 -4 27 -10 30 -15 3 -5 16 -9 29 -9 36 0 79
-22 63 -32 -10 -6 -8 -8 5 -8 9 0 17 4 17 9 0 5 11 11 25 13 31 6 33 -13 3
-27 -12 -6 -24 -16 -26 -24 -4 -11 4 -13 36 -9 25 4 51 1 67 -8 15 -8 35 -14
45 -14 9 0 25 -9 35 -20 10 -11 31 -20 47 -20 15 0 28 -4 28 -10 0 -5 9 -10
19 -10 11 0 23 -5 26 -11 4 -6 13 -8 21 -5 7 3 16 0 20 -5 3 -6 15 -9 25 -6
11 3 19 1 19 -4 0 -5 6 -9 14 -9 8 0 16 -4 18 -10 2 -5 27 -15 56 -22 59 -15
67 -25 20 -30 l-33 -4 28 -13 c23 -12 40 -54 20 -49 -5 0 -15 -1 -23 -5 -8 -3
-28 -9 -44 -14 -17 -5 -32 -15 -34 -23 -4 -10 1 -11 19 -6 13 5 35 9 49 10 14
1 38 7 53 14 37 16 58 15 81 -3 17 -13 22 -12 47 2 15 9 30 26 33 38 7 26 -3
65 -16 65 -6 0 -8 7 -4 15 3 9 0 15 -9 15 -8 0 -15 -6 -15 -14 0 -14 -58 -31
-69 -20 -3 3 2 11 12 19 15 11 13 13 -23 19 -44 7 -55 26 -14 26 14 0 23 3 21
8 -3 4 7 8 21 9 15 0 38 14 54 32 24 27 30 29 58 21 33 -9 410 -13 410 -3 0 7
-80 156 -92 171 -6 7 -13 10 -16 7 -6 -6 -36 42 -46 72 -5 17 -3 21 11 19 10
-2 17 -11 17 -20 -1 -8 2 -14 6 -11 9 6 45 -54 102 -167 l40 -79 76 0 c143 1
177 2 180 6 10 10 -100 143 -219 264 -28 29 -74 65 -76 61 -1 -3 -18 10 -37
29 -19 18 -39 30 -44 27 -6 -3 -13 -2 -17 4 -10 15 -85 13 -85 -3 0 -7 13 -31
30 -53 34 -45 36 -51 14 -51 -8 0 -25 14 -36 31 -29 42 -55 66 -62 59 -3 -4
-6 -2 -6 4 0 19 -31 23 -60 8 -28 -14 -28 -14 -49 31 -17 36 -19 49 -10 60 6
7 16 11 22 7 23 -14 -74 94 -105 118 -162 121 -392 250 -506 284 -22 6 -23 5
-12 -17 7 -12 26 -38 43 -55 39 -42 31 -52 -11 -13 -18 16 -32 26 -32 23 0 -4
-6 1 -13 11 -7 10 -33 20 -62 24 -42 6 -51 11 -53 30 -2 13 1 29 8 37 13 15
-20 42 -80 65 -19 7 -42 18 -50 25 -8 6 -33 20 -55 30 -22 11 -49 27 -60 36
-18 16 -78 29 -131 29 -12 0 -27 7 -33 14 -9 11 -19 12 -46 3 -35 -10 -65 2
-65 27 0 6 -10 16 -22 21 -13 6 -22 16 -21 22 2 7 -10 21 -25 32 -15 12 -32
25 -39 31 -8 6 -14 6 -18 0 -4 -6 -13 -5 -25 2 -30 19 -36 1 -10 -34 18 -24
19 -30 6 -25 -10 4 -19 1 -22 -8 -6 -15 -24 -11 -62 14 -13 8 -35 16 -49 17
-14 2 -33 6 -42 10 -15 6 -40 12 -68 16 -7 1 -17 16 -23 33 -9 27 -50 75 -65
75 -3 0 -5 -17 -6 -37z m-239 -182 c0 -12 -2 -13 -9 -3 -7 11 -10 10 -15 -3
-3 -9 -6 -25 -6 -36 0 -10 -4 -19 -10 -19 -5 0 -10 18 -10 40 0 33 -3 38 -17
33 -13 -4 -15 -3 -8 5 26 27 75 16 75 -17z m689 -70 c0 -9 -7 0 -14 19 -18 47
-18 74 0 31 8 -18 15 -41 14 -50z m-826 12 c-9 -25 -33 -59 -33 -47 0 16 24
64 32 64 4 0 5 -8 1 -17z m1192 -120 c118 -95 205 -177 247 -233 35 -46 170
-282 164 -287 -2 -2 -32 42 -66 98 -104 168 -187 261 -359 402 -91 75 -122
107 -104 107 5 0 58 -39 118 -87z m-1360 21 c-25 -30 -42 -60 -39 -66 4 -6 3
-8 -3 -5 -14 9 -32 -13 -92 -111 -47 -77 -51 -99 -8 -45 10 12 32 32 50 45
l32 22 -38 -44 c-37 -44 -107 -172 -107 -197 0 -7 7 -10 15 -7 25 10 17 -14
-11 -33 -15 -9 -33 -31 -40 -48 -7 -16 -13 -25 -14 -18 0 7 -7 10 -15 7 -17
-7 -20 8 -6 34 16 32 22 72 10 70 -23 -6 -16 32 12 69 15 21 29 42 29 46 0 5
13 25 29 45 17 20 36 49 44 64 7 15 45 72 83 127 53 77 74 100 92 101 20 0 18
-5 -23 -56z m1371 -216 c68 -74 154 -202 154 -230 0 -7 9 -24 20 -38 11 -14
20 -29 20 -35 0 -5 -19 18 -42 53 -22 34 -43 61 -45 59 -2 -2 6 -26 17 -52 11
-27 19 -53 17 -59 -5 -13 -47 75 -78 163 -17 48 -41 85 -93 145 -57 65 -63 75
-31 49 22 -17 50 -42 61 -55z m-1599 7 c0 -8 -4 -15 -8 -15 -11 0 -20 16 -12
24 11 11 20 7 20 -9z m1993 -25 c0 -5 -2 -10 -4 -10 -3 0 -8 5 -11 10 -3 6 -1
10 4 10 6 0 11 -4 11 -10z m-176 -140 c15 -28 26 -55 24 -60 -2 -5 -20 22 -40
61 -21 39 -32 66 -24 60 7 -6 25 -33 40 -61z m-1014 -61 c0 -6 -4 -7 -10 -4
-5 3 -10 11 -10 16 0 6 5 7 10 4 6 -3 10 -11 10 -16z m-29 -42 c-8 -8 -11 -7
-11 4 0 20 13 34 18 19 3 -7 -1 -17 -7 -23z m-49 -79 c-10 -10 -10 -8 -2 37 1
6 4 2 7 -9 3 -10 0 -23 -5 -28z m208 10 c0 -18 -2 -20 -9 -8 -6 8 -7 18 -5 22
9 14 14 9 14 -14z m70 -109 c0 -5 -4 -9 -10 -9 -5 0 -10 7 -10 16 0 8 5 12 10
9 6 -3 10 -10 10 -16z m1094 -72 c8 -21 10 -35 5 -31 -11 6 -39 66 -39 81 0
14 19 -13 34 -50z m-1794 18 c-7 -9 -15 -13 -19 -10 -3 3 1 10 9 15 21 14 24
12 10 -5z m459 8 c0 -5 -4 -17 -9 -28 -8 -18 -9 -17 -9 8 -1 15 4 27 9 27 6 0
10 -3 9 -7z m217 -20 c-10 -10 -19 5 -10 18 6 11 8 11 12 0 2 -7 1 -15 -2 -18z
m-1289 -45 c-3 -8 -6 -5 -6 6 -1 11 2 17 5 13 3 -3 4 -12 1 -19z m1290 0 c-3
-8 -6 -5 -6 6 -1 11 2 17 5 13 3 -3 4 -12 1 -19z m-1300 -90 c-2 -13 -4 -3 -4
22 0 25 2 35 4 23 2 -13 2 -33 0 -45z m870 40 c-3 -8 -6 -5 -6 6 -1 11 2 17 5
13 3 -3 4 -12 1 -19z m-906 -60 c-5 -29 -8 -54 -7 -55 1 -2 12 6 24 17 21 20
22 20 22 1 0 -12 -9 -21 -24 -25 -19 -5 -27 -16 -35 -49 -10 -39 -10 -38 -6
24 4 70 26 171 32 152 2 -6 0 -35 -6 -65z m769 32 c0 -5 -4 -10 -10 -10 -5 0
-10 5 -10 10 0 6 5 10 10 10 6 0 10 -4 10 -10z m-410 -4 c0 -3 -4 -8 -10 -11
-5 -3 -10 -1 -10 4 0 6 5 11 10 11 6 0 10 -2 10 -4z m-43 -12 c-3 -3 -12 -4
-19 -1 -8 3 -5 6 6 6 11 1 17 -2 13 -5z"/>
<path d="M2715 9710 c-12 -4 -27 -15 -34 -24 -7 -9 -20 -16 -27 -16 -8 0 -14
-5 -14 -10 0 -6 12 -8 28 -4 45 10 72 26 72 46 0 10 -1 18 -2 17 -2 0 -12 -4
-23 -9z"/>
<path d="M3830 9711 c0 -13 26 -21 63 -21 l32 1 -25 14 c-28 16 -70 20 -70 6z"/>
<path d="M2025 9690 c3 -5 8 -10 11 -10 2 0 4 5 4 10 0 6 -5 10 -11 10 -5 0
-7 -4 -4 -10z"/>
<path d="M4415 9690 c-3 -5 0 -13 9 -16 21 -8 61 -1 61 11 0 14 -62 19 -70 5z"/>
<path d="M1850 9674 l-25 -15 25 5 c14 3 28 6 33 6 4 0 7 5 7 10 0 14 -10 12
-40 -6z"/>
<path d="M3513 9680 c-26 -11 -28 -19 -10 -42 12 -17 27 -21 60 -19 21 1 23
34 1 55 -17 18 -20 18 -51 6z"/>
<path d="M4347 9683 c-4 -3 -7 -11 -7 -17 0 -6 5 -5 12 2 6 6 9 14 7 17 -3 3
-9 2 -12 -2z"/>
<path d="M2810 9649 c-24 -33 -19 -51 8 -31 9 7 27 16 40 22 26 11 29 25 6 34
-26 10 -32 7 -54 -25z"/>
<path d="M1980 9650 c0 -5 7 -10 15 -10 8 0 15 5 15 10 0 6 -7 10 -15 10 -8 0
-15 -4 -15 -10z"/>
<path d="M3637 9634 c8 -13 12 -24 8 -24 -4 0 -2 -7 5 -15 14 -16 55 -21 45
-5 -16 26 77 -2 118 -37 16 -12 34 -23 40 -23 7 0 37 -12 67 -27 79 -39 101
-46 70 -25 -13 9 -43 32 -65 49 -45 37 -123 76 -135 68 -11 -7 -60 15 -60 27
0 4 -8 8 -17 8 -10 1 -35 7 -55 14 l-37 13 16 -23z"/>
<path d="M2290 9640 c0 -5 7 -7 15 -4 8 4 15 8 15 10 0 2 -7 4 -15 4 -8 0 -15
-4 -15 -10z"/>
<path d="M2570 9637 c-31 -16 -33 -41 -3 -45 17 -3 26 3 33 23 16 41 12 43
-30 22z"/>
<path d="M1875 9610 c-3 -5 -1 -10 4 -10 6 0 11 5 11 10 0 6 -2 10 -4 10 -3 0
-8 -4 -11 -10z"/>
<path d="M2425 9597 c-19 -14 -13 -37 9 -37 7 0 20 8 29 18 27 30 -2 44 -38
19z"/>
<path d="M4306 9601 c-4 -5 3 -7 15 -4 15 4 22 0 26 -16 6 -22 36 -35 69 -29
14 2 19 -3 18 -19 0 -12 3 -20 8 -17 4 3 8 1 8 -5 0 -13 24 -26 106 -57 35
-13 64 -20 64 -15 0 5 -9 11 -20 14 -13 3 -18 11 -14 20 3 8 1 18 -4 21 -5 3
-7 28 -4 56 4 48 4 50 -21 50 -33 0 -42 -14 -22 -33 22 -23 19 -27 -20 -27
-21 0 -43 8 -54 19 -20 20 -20 20 0 26 10 4 17 11 14 16 -8 12 -162 12 -169 0z"/>
<path d="M4945 9589 c-11 -17 1 -21 15 -4 8 9 8 15 2 15 -6 0 -14 -5 -17 -11z"/>
<path d="M3330 9579 c0 -5 5 -7 10 -4 6 3 10 8 10 11 0 2 -4 4 -10 4 -5 0 -10
-5 -10 -11z"/>
<path d="M1529 9553 c-13 -16 -12 -17 4 -4 16 13 21 21 13 21 -2 0 -10 -8 -17
-17z"/>
<path d="M1966 9559 c4 -8 -1 -9 -17 -4 -13 4 -21 4 -17 0 8 -9 -29 -45 -46
-45 -6 0 -16 -11 -23 -25 -13 -29 -4 -31 38 -10 16 9 27 20 24 25 -3 6 0 7 7
5 8 -3 25 6 38 20 13 14 32 25 42 25 11 0 16 5 13 10 -3 6 -20 10 -36 10 -20
0 -28 -4 -23 -11z"/>
<path d="M2420 9540 c0 -5 4 -10 9 -10 6 0 13 5 16 10 3 6 -1 10 -9 10 -9 0
-16 -4 -16 -10z"/>
<path d="M1849 9522 c-14 -6 -14 -9 -4 -19 10 -9 14 -8 18 8 3 10 4 19 4 18
-1 0 -9 -3 -18 -7z"/>
<path d="M2312 9497 c-12 -7 -29 -23 -37 -34 -9 -12 -21 -20 -28 -18 -17 6
-91 -60 -83 -74 11 -18 19 -14 82 39 32 27 73 60 89 74 32 27 18 35 -23 13z"/>
<path d="M4338 9476 c-17 -23 -17 -25 10 -41 48 -31 172 -128 172 -134 0 -4
15 -15 33 -26 46 -27 181 -129 255 -193 34 -30 62 -50 62 -44 0 6 3 17 6 25
11 31 -352 364 -373 343 -3 -3 -13 3 -22 13 -16 18 -110 81 -120 81 -4 0 -14
-11 -23 -24z"/>
<path d="M1901 9431 c-44 -29 -44 -30 -19 -36 33 -8 119 42 97 56 -22 13 -31
11 -78 -20z"/>
<path d="M4013 9406 c15 -15 33 -26 38 -26 18 0 -1 20 -34 36 l-32 15 28 -25z"/>
<path d="M4230 9390 c0 -14 37 -39 160 -111 178 -103 270 -152 270 -142 0 24
-130 123 -257 198 -67 39 -89 47 -115 42 -18 -3 -27 -3 -20 0 21 8 13 21 -13
21 -14 0 -25 -4 -25 -8z"/>
<path d="M1848 9383 c7 -3 16 -2 19 1 4 3 -2 6 -13 5 -11 0 -14 -3 -6 -6z"/>
<path d="M4745 9335 c22 -19 46 -35 53 -35 19 0 14 30 -5 36 -10 3 -30 12 -45
20 -44 23 -45 15 -3 -21z"/>
<path d="M1950 9329 c-14 -11 -56 -37 -95 -59 -77 -43 -214 -152 -198 -157 30
-10 263 129 304 181 11 14 19 33 17 41 -2 11 -8 10 -28 -6z"/>
<path d="M4784 9229 c49 -52 92 -95 96 -97 4 -2 10 6 13 17 6 23 -22 54 -98
111 -96 71 -99 62 -11 -31z"/>
<path d="M1710 9289 c-27 -11 -96 -73 -111 -101 -8 -14 -6 -16 8 -11 10 4 23
11 28 15 6 5 29 22 53 39 25 17 40 34 36 41 -4 6 -3 8 3 5 6 -4 19 0 29 8 19
14 19 14 -1 14 -11 0 -31 -5 -45 -10z"/>
<path d="M4270 9266 c0 -3 9 -10 20 -16 11 -6 20 -8 20 -6 0 3 -9 10 -20 16
-11 6 -20 8 -20 6z"/>
<path d="M2075 9149 c-83 -56 -209 -165 -299 -259 -78 -82 -92 -114 -61 -140
8 -7 15 -19 15 -27 0 -10 9 -14 33 -11 28 3 40 14 92 89 77 111 156 208 235
288 49 50 60 67 54 82 -8 16 -14 15 -69 -22z"/>
<path d="M3090 9177 c0 -8 9 -22 20 -32 21 -19 24 -15 14 23 -7 24 -34 31 -34
9z"/>
<path d="M1942 9118 c-29 -17 -108 -83 -175 -148 -98 -95 -120 -121 -110 -131
10 -10 33 6 115 87 57 55 134 127 171 162 37 34 64 61 60 61 -4 -1 -32 -15
-61 -31z"/>
<path d="M1630 9095 c0 -8 -11 -22 -25 -31 -29 -19 -36 -51 -7 -35 9 6 31 21
47 35 25 22 28 27 15 36 -21 14 -30 12 -30 -5z"/>
<path d="M2809 9108 c0 -2 -2 -14 -3 -28 -2 -14 -6 -33 -11 -43 -5 -13 -4 -16
9 -11 29 11 17 -21 -19 -53 -24 -21 -33 -37 -29 -48 10 -26 39 -13 42 20 2 18
17 42 38 61 25 24 34 40 34 64 0 27 -3 32 -20 27 -11 -3 -20 -1 -20 4 0 8 -19
14 -21 7z"/>
<path d="M1720 9035 c-116 -80 -147 -115 -101 -115 17 0 93 63 191 156 44 42
7 26 -90 -41z"/>
<path d="M4765 9070 c10 -11 20 -20 23 -20 3 0 -3 9 -13 20 -10 11 -20 20 -23
20 -3 0 3 -9 13 -20z"/>
<path d="M2460 8910 c0 -5 7 -10 15 -10 8 0 15 5 15 10 0 6 -7 10 -15 10 -8 0
-15 -4 -15 -10z"/>
<path d="M2430 8861 c0 -5 5 -13 10 -16 6 -3 10 -2 10 4 0 5 -4 13 -10 16 -5
3 -10 2 -10 -4z"/>
<path d="M3715 8860 c3 -5 8 -10 11 -10 2 0 4 5 4 10 0 6 -5 10 -11 10 -5 0
-7 -4 -4 -10z"/>
<path d="M2585 8839 c-11 -17 1 -21 15 -4 8 9 8 15 2 15 -6 0 -14 -5 -17 -11z"/>
<path d="M2540 8830 c0 -5 5 -10 10 -10 6 0 10 5 10 10 0 6 -4 10 -10 10 -5 0
-10 -4 -10 -10z"/>
<path d="M3320 8693 c1 -10 7 -29 15 -43 15 -25 15 -25 13 14 -3 39 -28 66
-28 29z"/>
<path d="M2845 8690 c-3 -5 -1 -10 4 -10 6 0 11 5 11 10 0 6 -2 10 -4 10 -3 0
-8 -4 -11 -10z"/>
<path d="M5040 8583 c0 -6 8 -17 18 -24 16 -13 16 -13 2 6 -8 11 -16 22 -17
24 -2 2 -3 0 -3 -6z"/>
<path d="M1755 8550 c-4 -6 -4 -10 -1 -10 2 0 11 -3 20 -6 9 -3 16 -2 16 4 0
14 -28 23 -35 12z"/>
<path d="M3908 8483 c7 -3 16 -2 19 1 4 3 -2 6 -13 5 -11 0 -14 -3 -6 -6z"/>
<path d="M2855 8450 c-3 -5 -1 -10 4 -10 6 0 11 5 11 10 0 6 -2 10 -4 10 -3 0
-8 -4 -11 -10z"/>
<path d="M2726 8334 c-11 -27 -7 -35 12 -26 9 5 24 7 32 4 9 -3 6 4 -7 17 -27
25 -29 26 -37 5z"/>
<path d="M2892 8317 c-15 -42 -15 -47 2 -47 7 0 19 -7 26 -15 9 -10 9 -15 1
-15 -6 0 -11 -7 -11 -16 0 -11 -6 -14 -20 -9 -19 6 -20 4 -14 -22 4 -15 11
-31 17 -34 6 -4 5 -9 -1 -13 -6 -3 -14 3 -17 14 -6 17 -9 19 -22 9 -12 -10
-16 -10 -23 1 -7 11 -11 11 -24 0 -14 -11 -16 -10 -10 4 5 14 3 15 -22 6 -16
-6 -38 -9 -50 -6 -13 4 -26 1 -29 -4 -5 -8 -11 -7 -21 1 -20 17 -7 30 24 23
23 -4 24 -4 9 6 -22 14 -63 9 -59 -8 1 -8 -2 -11 -7 -8 -5 4 -18 -5 -29 -19
-20 -25 -60 -34 -99 -21 -12 4 -24 2 -28 -4 -3 -6 -11 -8 -16 -4 -11 7 -39
-13 -39 -28 0 -6 7 -4 16 3 13 11 17 10 26 -4 5 -10 13 -15 18 -12 5 3 12 0
15 -5 4 -7 26 -9 58 -5 45 6 60 3 107 -22 42 -22 67 -28 108 -26 28 1 52 -2
52 -7 0 -5 12 -7 27 -6 15 2 35 -2 45 -7 12 -8 24 -7 43 1 43 20 62 15 32 -8
-14 -11 -30 -20 -36 -20 -6 0 -11 -6 -11 -14 0 -16 16 -29 40 -33 8 -1 24 -7
36 -14 26 -13 46 2 83 64 13 20 27 35 32 31 5 -3 9 2 9 10 0 9 5 16 10 16 6 0
10 6 10 14 0 15 37 32 47 22 4 -3 1 -6 -5 -6 -6 0 -18 -13 -27 -29 -8 -16 -28
-44 -44 -61 -27 -30 -28 -34 -13 -50 11 -14 21 -16 39 -9 20 7 23 6 23 -16 0
-14 5 -25 10 -25 6 0 10 8 10 18 0 14 2 15 10 2 6 -9 10 -10 10 -3 0 6 3 19 7
29 5 12 3 15 -6 9 -21 -12 -3 37 21 58 24 20 46 24 31 5 -13 -16 -25 -78 -27
-134 -1 -37 1 -40 17 -30 9 6 17 18 17 26 0 8 6 23 14 32 13 17 13 88 1 121
-5 11 -2 17 6 17 12 0 12 2 0 9 -15 10 -6 51 11 51 5 0 7 -7 4 -16 -4 -10 -2
-13 6 -8 7 5 9 -1 6 -20 -6 -32 0 -37 57 -41 49 -3 64 13 35 37 -12 11 -16 24
-13 42 5 25 23 37 23 16 0 -7 7 -7 21 1 15 8 19 8 15 0 -12 -18 4 -34 20 -20
10 8 14 8 14 0 0 -6 5 -11 11 -11 5 0 7 5 4 10 -9 14 -3 13 56 -10 65 -26 118
-29 134 -7 6 9 30 19 53 23 23 4 42 10 42 14 0 3 13 7 30 7 16 0 39 8 51 19
11 10 30 19 42 19 12 0 23 7 25 17 6 30 -85 26 -166 -8 -18 -8 -40 -14 -50
-14 -9 0 -30 -7 -46 -15 -23 -12 -36 -13 -56 -5 -19 8 -34 8 -56 -1 -46 -19
-68 -19 -94 2 -14 10 -19 19 -12 19 6 0 12 8 12 18 0 10 5 23 12 30 8 8 8 15
-1 26 -9 11 -9 15 1 18 10 4 8 9 -5 22 -17 17 -43 13 -32 -5 4 -5 1 -9 -4 -9
-6 0 -11 4 -11 10 0 5 -10 14 -21 21 -25 13 -39 -1 -39 -39 0 -13 -4 -21 -9
-18 -4 3 -6 16 -4 28 2 13 -3 32 -11 43 -14 18 -17 18 -26 4 -11 -20 -59 -14
-77 8 -7 9 -19 13 -28 10 -9 -4 -15 -1 -15 8 0 19 -16 19 -27 2 -10 -17 -62
-51 -68 -45 -3 2 -6 15 -8 29 -2 13 -8 22 -13 19 -5 -3 -8 -9 -6 -13 1 -5 -3
-5 -9 -1 -6 3 -15 0 -20 -7 -8 -12 -11 -12 -19 1 -8 13 -10 12 -10 -2 0 -10
-5 -18 -11 -18 -6 0 -9 9 -6 20 4 17 1 18 -27 13 -17 -3 -32 -10 -34 -15 -8
-18 -22 -7 -22 17 0 35 -14 31 -28 -8z m501 -151 c4 -10 1 -13 -8 -9 -8 3 -12
9 -9 14 7 12 11 11 17 -5z m-33 -26 c0 -5 -6 -10 -14 -10 -8 0 -18 5 -21 10
-3 6 3 10 14 10 12 0 21 -4 21 -10z m-115 -98 c-3 -3 -11 0 -18 7 -9 10 -8 11
6 5 10 -3 15 -9 12 -12z"/>
<path d="M4122 8338 c6 -16 130 -50 141 -39 14 14 -35 38 -91 45 -42 5 -53 4
-50 -6z"/>
<path d="M2813 8300 c-7 -11 -9 -21 -3 -25 5 -3 12 -1 15 5 4 6 16 8 26 5 18
-6 19 -5 7 14 -16 26 -30 27 -45 1z"/>
<path d="M3476 8303 c6 -4 14 -15 17 -23 5 -11 6 -9 4 4 -1 11 -9 21 -17 23
-10 3 -11 2 -4 -4z"/>
<path d="M2182 8288 c-29 -29 1 -39 34 -12 10 8 13 12 5 8 -7 -3 -16 -2 -20 5
-5 8 -10 8 -19 -1z"/>
<path d="M2265 8289 c-11 -17 0 -20 21 -4 17 13 17 14 2 15 -9 0 -20 -5 -23
-11z"/>
<path d="M3514 8263 c4 -6 -2 -16 -11 -22 -10 -5 -14 -13 -9 -18 5 -4 11 -2
13 5 7 19 24 14 21 -5 -2 -13 3 -17 17 -15 27 5 28 7 20 33 -6 17 -9 19 -16 8
-7 -11 -11 -10 -24 6 -9 11 -14 15 -11 8z"/>
<path d="M4420 8260 c0 -5 7 -10 16 -10 8 0 12 5 9 10 -3 6 -10 10 -16 10 -5
0 -9 -4 -9 -10z"/>
<path d="M4390 8245 c7 -9 15 -13 17 -11 7 7 -7 26 -19 26 -6 0 -6 -6 2 -15z"/>
<path d="M1903 8243 c-23 -9 -14 -20 12 -15 14 2 22 8 19 13 -6 10 -12 10 -31
2z"/>
<path d="M1845 8210 c-3 -5 -2 -10 4 -10 5 0 13 5 16 10 3 6 2 10 -4 10 -5 0
-13 -4 -16 -10z"/>
<path d="M2830 8211 c0 -5 5 -13 10 -16 6 -3 10 -2 10 4 0 5 -4 13 -10 16 -5
3 -10 2 -10 -4z"/>
<path d="M2738 8203 c6 -2 18 -2 25 0 6 3 1 5 -13 5 -14 0 -19 -2 -12 -5z"/>
<path d="M2569 8173 c-12 -15 -12 -16 4 -10 10 4 23 7 28 7 6 0 7 5 4 10 -9
15 -21 12 -36 -7z"/>
<path d="M2165 8160 c-10 -11 -15 -20 -11 -20 14 0 46 21 46 30 0 16 -16 11
-35 -10z"/>
<path d="M4713 8139 c-13 -5 -23 -12 -23 -17 0 -5 -23 -10 -52 -11 -29 -1 -59
-8 -68 -16 -9 -8 -24 -15 -33 -15 -9 0 -19 -4 -22 -10 -4 -6 6 -10 24 -10 16
0 32 -4 36 -10 4 -6 15 -6 31 0 14 6 37 10 52 11 15 0 22 3 15 5 -23 10 -2 34
23 28 17 -5 24 -2 24 9 0 8 5 17 12 19 6 2 9 9 7 15 -3 7 -12 8 -26 2z"/>
<path d="M1835 8130 c-3 -5 -2 -10 4 -10 5 0 13 5 16 10 3 6 2 10 -4 10 -5 0
-13 -4 -16 -10z"/>
<path d="M1955 8121 c-11 -3 -21 -11 -22 -17 -3 -14 63 -2 79 14 11 11 -24 12
-57 3z"/>
<path d="M1950 8078 c-17 -6 -20 -12 -12 -20 6 -6 18 -7 29 -2 10 4 38 8 62 8
24 1 46 6 48 11 4 13 -94 15 -127 3z"/>
<path d="M4710 8061 c0 -5 -12 -12 -26 -15 -15 -4 -33 -14 -41 -21 -8 -8 -23
-15 -34 -15 -11 0 -38 -9 -61 -21 -42 -21 -39 -37 7 -40 13 -1 9 -4 -10 -8
-25 -6 -30 -11 -28 -33 1 -20 -4 -28 -23 -32 -34 -9 -30 -26 6 -26 19 0 29 -5
28 -12 -3 -13 5 -15 64 -17 22 -1 25 -5 21 -22 -4 -14 0 -26 10 -34 14 -10 11
-14 -23 -24 -21 -6 -41 -15 -44 -20 -7 -10 -66 -1 -66 10 0 5 7 9 16 9 8 0 12
5 9 10 -3 6 -18 10 -33 9 -15 0 -21 -3 -14 -6 19 -8 14 -21 -10 -25 -41 -6
-31 -26 17 -33 25 -4 48 -11 51 -16 3 -5 14 -9 25 -9 10 0 19 -4 19 -10 0 -5
-9 -10 -21 -10 -11 0 -17 -4 -14 -10 3 -5 1 -19 -5 -30 -10 -19 -9 -20 16 -14
26 7 26 6 8 -15 -12 -14 -22 -17 -28 -11 -6 6 -18 10 -29 10 -10 0 -15 5 -12
11 5 7 -3 9 -21 7 -23 -2 -29 -7 -27 -25 2 -14 -3 -23 -11 -23 -9 0 -13 -10
-12 -25 0 -14 7 -25 14 -25 6 0 12 -4 12 -8 0 -5 10 -14 23 -20 12 -6 16 -11
8 -11 -8 -1 -23 -9 -33 -18 -17 -15 -25 -15 -65 -5 -51 14 -48 15 -57 -15 -5
-14 -3 -23 3 -23 6 0 11 -5 11 -11 0 -7 -11 -9 -27 -6 -27 5 -27 5 7 -24 19
-16 54 -36 78 -46 42 -18 49 -29 55 -82 1 -17 -5 -28 -19 -36 -12 -6 -29 -17
-38 -24 -13 -11 -22 -11 -42 -2 -14 6 -28 11 -33 11 -13 0 -9 -34 7 -53 20
-23 7 -35 -16 -14 -23 21 -32 21 -32 2 0 -8 11 -22 25 -31 14 -9 23 -20 20
-24 -3 -5 6 -17 20 -28 14 -11 25 -24 25 -30 0 -5 10 -16 23 -25 21 -15 20
-15 -20 -10 -29 4 -43 2 -43 -6 0 -16 60 -69 93 -80 29 -11 38 2 10 15 -15 6
-12 8 12 13 21 4 30 12 30 25 0 14 10 22 33 28 26 7 31 12 23 22 -6 8 -9 21
-5 30 3 9 2 16 -3 16 -5 0 -18 6 -29 14 -17 13 -15 14 24 9 49 -7 52 -1 15 32
l-28 24 60 1 c59 0 96 12 82 26 -4 4 2 13 13 21 21 15 27 43 10 43 -18 0 -10
18 10 23 13 3 20 14 20 29 0 32 10 43 50 54 20 5 35 16 35 24 0 8 -6 14 -12
13 -7 -2 -13 4 -13 13 0 8 -4 12 -10 9 -5 -3 -10 -1 -10 4 0 6 10 10 21 8 27
-3 37 20 12 25 -14 4 -10 8 17 20 19 9 29 17 22 17 -10 1 -10 5 2 16 11 12 14
32 12 77 -2 45 1 66 11 77 9 8 13 26 11 43 -3 20 0 28 11 29 10 0 8 4 -6 9
-25 10 -30 25 -12 35 6 5 4 11 -7 19 -14 11 -14 16 -4 33 8 12 10 28 5 39 -4
11 -7 25 -6 32 1 6 -3 12 -8 12 -24 0 -53 90 -55 170 0 14 -5 28 -11 32 -14
11 -35 10 -35 -1z m-63 -263 c-3 -8 -6 -5 -6 6 -1 11 2 17 5 13 3 -3 4 -12 1
-19z m-177 -518 c0 -5 -4 -10 -10 -10 -5 0 -10 5 -10 10 0 6 5 10 10 10 6 0
10 -4 10 -10z m-65 -214 c17 -17 9 -26 -21 -26 -28 0 -42 19 -23 31 19 12 28
11 44 -5z"/>
<path d="M1990 8041 c0 -6 4 -13 10 -16 6 -3 7 1 4 9 -7 18 -14 21 -14 7z"/>
<path d="M2235 8021 c-11 -5 -26 -6 -32 -4 -7 3 -13 0 -13 -6 0 -6 11 -12 25
-12 14 -1 31 -2 38 -3 6 -1 15 -6 20 -13 7 -11 133 -16 150 -6 5 3 -1 15 -13
28 -18 19 -32 23 -88 23 -37 0 -76 -3 -87 -7z"/>
<path d="M1913 7983 c-16 -12 -16 -13 2 -13 10 0 15 -3 12 -6 -4 -4 2 -15 13
-24 22 -19 130 -36 139 -21 3 5 15 10 25 12 31 6 14 24 -24 25 -53 2 -54 3
-31 22 21 17 20 17 -48 17 -41 0 -78 -5 -88 -12z"/>
<path d="M3453 7968 c11 -29 -24 -40 -50 -16 -29 27 -53 17 -53 -22 0 -18 4
-29 10 -25 6 3 10 14 10 23 0 14 3 14 18 -4 22 -28 162 -44 162 -19 0 12 7 14
26 9 19 -5 25 -4 20 5 -4 6 -16 11 -27 11 -10 0 -19 4 -19 10 0 5 -17 12 -37
16 -21 4 -44 12 -52 18 -12 9 -13 8 -8 -6z"/>
<path d="M4461 7971 c-10 -6 -10 -10 -1 -16 13 -8 24 -1 19 14 -3 6 -10 7 -18
2z"/>
<path d="M2193 7802 c-13 -2 -23 -8 -23 -13 0 -11 37 -11 64 0 20 8 20 8 0 12
-10 3 -29 3 -41 1z"/>
<path d="M2245 7770 c-3 -5 1 -10 9 -10 9 0 16 5 16 10 0 6 -4 10 -9 10 -6 0
-13 -4 -16 -10z"/>
<path d="M2273 7733 c-30 -12 -11 -25 28 -20 58 8 75 27 24 26 -22 0 -46 -3
-52 -6z"/>
<path d="M2345 7690 c-8 -13 25 -13 45 0 12 8 9 10 -12 10 -15 0 -30 -4 -33
-10z"/>
<path d="M2203 7670 c-33 -13 -29 -32 5 -24 36 9 43 14 37 25 -7 11 -13 11
-42 -1z"/>
<path d="M4261 7656 c-9 -11 -7 -15 11 -20 39 -10 80 -7 72 5 -3 6 0 15 7 20
9 6 -2 9 -32 9 -28 0 -51 -6 -58 -14z"/>
<path d="M1975 7635 c-25 -12 -26 -14 -9 -15 12 0 27 7 34 15 15 18 14 18 -25
0z"/>
<path d="M2240 7630 c-13 -11 -33 -20 -45 -20 -13 0 -28 -6 -34 -14 -10 -12
-5 -13 31 -4 24 5 47 16 51 24 4 8 15 14 22 14 8 0 15 5 15 10 0 16 -15 12
-40 -10z"/>
<path d="M2260 7560 c-9 -17 -8 -20 9 -20 25 0 71 20 71 32 0 4 -16 8 -35 8
-24 0 -37 -6 -45 -20z"/>
<path d="M1837 7503 c-4 -3 -7 -11 -7 -17 0 -6 5 -5 12 2 6 6 9 14 7 17 -3 3
-9 2 -12 -2z"/>
<path d="M2105 7491 c-3 -2 -5 -8 -5 -13 0 -13 57 -9 68 5 9 10 4 13 -24 13
-19 0 -37 -2 -39 -5z"/>
<path d="M2270 7445 c-14 -8 -20 -14 -14 -15 5 0 19 7 30 15 24 18 16 19 -16
0z"/>
<path d="M2035 7342 c-26 -5 -44 -22 -24 -22 10 -1 10 -3 -3 -11 -53 -30 8
-35 175 -13 45 6 77 24 43 24 -9 0 -16 4 -16 9 0 16 -54 22 -98 13 -22 -5 -44
-6 -49 -2 -4 3 -17 5 -28 2z"/>
<path d="M1137 7239 c-43 -7 -44 -8 -49 -33 -2 -15 4 -21 29 -27 42 -8 233 -5
256 5 20 9 22 29 5 44 -15 12 -187 20 -241 11z"/>
<path d="M145 6968 c-11 -6 -25 -16 -31 -24 -15 -18 -1 -124 18 -138 9 -7 17
-35 21 -71 3 -33 17 -181 31 -330 15 -148 35 -360 46 -470 10 -110 22 -238 25
-285 12 -182 27 -307 42 -361 12 -46 14 -81 7 -195 l-9 -139 -60 4 c-87 5 -99
13 -90 64 18 105 17 138 -4 186 -20 47 -19 90 3 92 6 1 17 2 25 3 8 0 15 10
17 20 5 37 -120 136 -171 136 -13 0 -15 -326 -15 -2630 l0 -2630 23 -5 c12 -3
62 -10 112 -15 75 -8 239 -29 425 -54 19 -3 67 -8 105 -11 39 -3 95 -10 125
-15 30 -5 129 -19 220 -30 91 -12 179 -25 195 -30 17 -5 57 -10 90 -11 84 -2
112 -12 55 -20 -25 -3 1279 -7 2898 -7 l2942 -2 0 2605 0 2605 -31 0 c-30 0
-509 -51 -664 -70 -113 -14 -413 -45 -735 -75 -247 -23 -385 -37 -490 -50 -19
-2 -98 -9 -175 -15 -77 -7 -160 -19 -184 -26 -33 -11 -47 -12 -57 -3 -11 9
-11 15 -3 25 6 7 10 21 9 31 -5 45 0 65 15 59 8 -3 15 -1 15 3 0 5 -6 11 -12
14 -10 3 -10 7 0 19 7 9 10 22 7 30 -4 9 1 18 11 22 14 5 14 9 3 23 -8 9 -13
18 -11 19 15 18 41 101 37 115 -4 12 -1 19 7 19 7 0 1 10 -14 21 -29 22 -37
54 -15 62 6 3 -2 6 -19 6 -16 1 -39 8 -50 17 -18 14 -17 15 17 12 27 -3 40 1
48 14 9 15 7 19 -17 24 -15 3 -37 10 -49 16 -11 6 -27 7 -34 3 -8 -5 -10 -4
-5 3 4 8 -3 16 -18 22 -14 5 -26 12 -26 16 0 6 33 0 64 -12 12 -5 15 -2 9 12
-4 12 -3 15 6 10 6 -4 25 -11 41 -16 23 -7 28 -5 23 6 -3 8 1 14 11 14 9 0 16
-7 16 -15 0 -8 5 -15 11 -15 15 0 -14 45 -30 46 -24 3 -26 5 -13 13 20 12 -35
53 -60 46 -23 -8 -87 28 -112 62 -19 26 -19 26 0 18 10 -4 30 -10 44 -12 l25
-5 -25 21 -25 22 28 -7 c15 -3 27 -4 27 -1 0 10 -78 58 -108 67 -29 8 -31 7
-22 -10 5 -10 15 -21 22 -24 7 -3 -3 -3 -22 0 -19 3 -59 17 -89 30 -29 13 -57
24 -62 24 -5 0 3 -18 17 -40 29 -44 27 -66 -3 -30 -10 12 -24 28 -30 35 -7 8
-13 18 -13 24 0 6 -4 11 -8 11 -4 0 -16 20 -26 45 -10 24 -23 42 -28 39 -5 -3
-16 0 -26 8 -9 7 -3 -4 12 -24 16 -21 32 -38 37 -38 5 0 9 -4 9 -10 0 -6 -9
-6 -25 0 -43 16 -29 -10 36 -71 36 -33 59 -62 55 -68 -4 -6 -12 -8 -18 -5 -5
4 -21 1 -34 -6 -19 -11 -22 -18 -17 -39 3 -14 10 -32 16 -39 15 -19 4 -23 -24
-8 -39 20 -87 27 -91 14 -3 -7 -13 2 -23 20 -16 27 -35 42 -35 28 0 -41 60
-103 133 -134 32 -14 36 -32 7 -32 -11 0 -20 4 -20 9 0 5 -15 13 -32 16 -18 4
-59 25 -92 46 -57 38 -76 46 -76 32 0 -3 8 -15 17 -26 10 -10 18 -25 18 -33 0
-9 13 -23 29 -32 30 -18 89 -72 78 -72 -3 0 -1 -5 6 -12 7 -7 12 -18 12 -25 0
-10 -6 -10 -25 3 -14 9 -28 14 -31 11 -3 -3 7 -13 23 -23 31 -19 53 -43 53
-57 0 -4 -13 1 -29 12 -16 12 -35 21 -43 21 -7 0 -33 11 -57 25 -51 30 -47 29
-55 9 -3 -8 -2 -13 3 -9 5 3 21 -9 35 -26 20 -24 23 -33 14 -43 -10 -10 -17
-10 -39 3 -15 8 -25 19 -22 24 2 4 -2 19 -11 32 -20 31 -20 36 0 28 12 -4 15
-2 12 8 -3 8 -12 14 -20 14 -9 0 -25 8 -35 18 -22 19 -44 24 -25 5 7 -7 12
-19 12 -28 0 -9 11 -27 25 -40 14 -13 25 -28 25 -33 0 -6 -11 0 -25 13 -20 19
-27 21 -40 10 -13 -10 -10 -16 23 -43 20 -17 55 -52 77 -78 22 -25 44 -44 49
-41 5 3 6 0 2 -7 -5 -8 -16 -5 -37 9 -18 14 -29 17 -29 9 0 -15 -11 -6 -14 13
-5 27 -133 148 -157 148 -4 0 -7 -6 -6 -12 1 -37 -5 -46 -33 -50 -16 -3 -35 0
-41 6 -9 8 -10 7 -4 -3 10 -18 18 -81 10 -81 -4 0 -20 15 -37 33 -20 22 -32
28 -35 19 -4 -10 -10 -9 -27 5 l-21 18 20 -25 c10 -14 31 -36 45 -50 14 -14
21 -22 16 -17 -15 11 -38 9 -31 -3 3 -5 1 -10 -4 -10 -6 0 -11 6 -11 14 0 8
-11 28 -25 43 l-24 28 -1 -26 c0 -15 -7 -29 -15 -33 -8 -3 -15 -1 -15 4 0 6
-5 10 -11 10 -6 0 -8 -9 -4 -20 4 -12 1 -27 -5 -35 -9 -10 -7 -20 6 -40 16
-24 16 -25 -1 -18 -15 5 -17 2 -13 -15 7 -26 -8 -29 -34 -5 -17 15 -18 15 -18
-10 0 -19 -4 -25 -15 -21 -11 5 -17 -3 -21 -25 -6 -28 -24 -44 -24 -21 0 6 -4
10 -10 10 -5 0 -10 -7 -10 -15 0 -8 -5 -15 -11 -15 -6 0 -9 -9 -6 -20 3 -11 1
-18 -4 -14 -5 3 -9 12 -9 19 0 8 -9 29 -20 47 -23 38 -26 53 -7 41 35 -22 35
13 0 97 -6 14 -12 34 -14 44 -6 29 -27 31 -35 2 -4 -17 1 -41 15 -69 22 -46
28 -72 10 -47 -8 11 -9 0 -6 -43 6 -59 -6 -70 -18 -17 -7 32 -21 31 -35 -4 -8
-19 -9 -19 -9 7 -1 30 -17 37 -24 10 -4 -17 -5 -17 -6 -1 -1 12 -8 17 -24 16
-23 -2 -23 -5 -21 -78 2 -41 5 -101 8 -132 5 -47 3 -56 -9 -52 -8 3 -14 9 -13
12 3 20 -16 71 -28 76 -8 3 -14 19 -14 38 l1 33 14 -30 c14 -31 19 -17 9 23
-7 23 -44 32 -44 10 0 -9 -4 -8 -10 2 -22 33 -10 -18 15 -64 29 -55 32 -68 8
-35 -43 58 -70 116 -64 134 7 22 6 103 -1 99 -4 -3 -8 0 -8 5 0 6 -7 11 -15
11 -8 0 -15 9 -15 20 0 11 -5 20 -11 20 -6 0 -8 8 -5 18 4 10 -2 7 -14 -8
l-20 -25 0 25 c0 14 -5 32 -11 40 -8 12 -9 11 -5 -5 3 -11 1 -27 -4 -34 -7
-12 -10 -8 -15 15 -13 57 -27 86 -36 72 -7 -10 -9 -9 -9 5 0 10 -8 17 -19 17
-12 0 -24 13 -34 38 l-15 37 -11 -25 c-5 -14 -10 -20 -11 -15 -1 6 -5 2 -8 -8
-7 -16 -9 -16 -32 5 -14 14 -25 18 -27 11 -3 -7 -11 -9 -19 -6 -8 3 -21 0 -29
-7 -13 -11 -15 -7 -16 21 -1 36 -3 33 -14 -14 -4 -19 -11 -27 -20 -23 -7 2
-16 0 -19 -7 -3 -9 -5 -9 -5 0 -1 7 -7 10 -15 7 -8 -3 -17 -1 -20 5 -4 6 -13
8 -21 4 -10 -3 -15 1 -15 13 -1 18 -1 18 -15 0 -14 -19 -15 -18 -22 14 -5 29
-8 31 -14 15 -7 -20 -8 -20 -9 0 -1 18 -1 19 -11 3 -12 -21 -34 -24 -26 -4 10
25 -6 28 -20 4 -7 -13 -12 -17 -13 -10 0 7 -5 10 -11 6 -8 -4 -9 3 -4 25 8 40
2 39 -24 -1 l-21 -33 0 28 c0 16 -4 26 -9 23 -5 -4 -7 2 -4 13 5 20 -29 41
-35 21 -2 -5 -13 -15 -24 -21 -18 -10 -19 -9 -8 11 10 18 9 21 -1 15 -9 -6
-10 -3 -5 11 18 46 11 127 -8 95 -12 -19 -18 -83 -7 -76 15 8 14 1 -4 -41 -8
-19 -12 -41 -8 -49 6 -16 -66 -95 -86 -95 -12 0 -10 27 3 48 10 17 1 26 -16
16 -7 -5 -19 -9 -25 -9 -15 0 -123 -104 -123 -117 0 -13 31 6 59 36 14 14 30
26 37 26 6 0 14 9 17 20 3 13 10 18 21 14 14 -5 13 -9 -6 -30 -13 -13 -30 -24
-38 -24 -8 0 -28 -16 -44 -36 l-29 -37 29 7 c15 4 51 24 79 44 l50 37 -25 -31
c-14 -17 -26 -30 -28 -29 -5 4 -112 -60 -146 -87 -17 -12 -35 -23 -40 -23 -24
0 -72 -27 -85 -47 -31 -50 50 -38 107 16 27 26 34 28 42 16 5 -8 10 -21 10
-28 0 -12 -8 -17 -76 -42 -17 -6 -37 -22 -44 -36 -13 -22 -15 -23 -36 -9 -21
13 -23 13 -18 0 4 -10 0 -15 -10 -15 -18 0 -22 -15 -6 -25 6 -4 8 -11 5 -16
-4 -5 1 -9 9 -9 9 0 16 -4 16 -10 0 -14 -43 -13 -58 2 -9 9 -12 9 -12 0 0 -7
-4 -12 -10 -12 -17 0 -11 18 11 39 12 11 19 27 16 35 -5 12 -12 13 -50 1 -39
-12 -45 -11 -43 1 1 8 11 20 22 28 10 8 16 18 11 22 -4 4 -13 2 -19 -4 -7 -7
-20 -12 -29 -12 -33 0 -88 -38 -89 -61 0 -12 53 -20 63 -10 6 6 15 11 20 11 5
0 -9 -18 -32 -40 -22 -22 -41 -43 -41 -46 0 -4 14 -4 30 0 l30 6 -22 -30 c-12
-17 -25 -30 -30 -30 -4 0 -8 -9 -8 -20 0 -15 7 -20 25 -20 32 0 32 -13 0 -30
-14 -7 -25 -17 -25 -21 0 -5 -12 -15 -27 -23 -20 -11 -23 -15 -10 -16 9 0 25
9 34 20 10 11 26 20 37 20 19 0 19 -1 -3 -17 -23 -16 -23 -17 -5 -24 16 -7 16
-8 -6 -8 -30 -1 -73 -28 -65 -41 3 -5 12 -7 20 -3 9 3 15 -1 15 -8 0 -8 12
-25 25 -38 14 -13 25 -27 25 -32 0 -5 15 -9 33 -9 31 -1 31 -1 12 -16 -19 -15
-19 -16 13 -12 38 5 43 -9 7 -18 -14 -3 -25 -10 -25 -15 0 -13 21 -10 50 6 14
8 35 14 48 15 35 0 26 20 -10 20 -26 0 -30 3 -18 11 12 8 9 9 -12 5 -35 -8
-37 10 -3 26 14 6 24 16 22 22 -5 15 61 62 94 68 24 4 26 2 25 -26 -1 -22 -10
-38 -31 -55 -16 -13 -22 -21 -13 -18 9 3 19 1 21 -6 3 -8 13 -6 33 9 36 26 64
36 64 24 0 -13 -57 -54 -118 -84 -29 -15 -50 -31 -47 -36 3 -4 -1 -11 -7 -13
-10 -4 -10 -6 0 -6 7 -1 15 6 18 14 9 23 33 19 27 -5 -7 -28 20 -26 74 6 25
14 47 23 51 19 4 -3 0 -10 -8 -15 -8 -6 -10 -10 -4 -10 6 0 17 6 23 14 6 7 38
34 71 60 60 47 61 47 56 20 -3 -15 -9 -30 -13 -34 -66 -57 -140 -130 -136
-134 3 -3 -8 -17 -23 -32 l-29 -26 28 17 c16 9 32 13 35 9 4 -4 1 -9 -6 -11
-6 -3 -12 -9 -12 -14 0 -5 9 -4 20 3 11 7 18 18 16 24 -5 13 41 6 49 -7 3 -4
13 -6 23 -3 9 3 5 -4 -10 -16 -16 -12 -25 -27 -21 -35 4 -11 -2 -15 -20 -15
-32 0 -55 -25 -31 -34 10 -4 22 -2 28 4 17 17 27 11 16 -9 -5 -11 -24 -30 -42
-42 -26 -19 -30 -20 -25 -6 5 14 3 16 -11 8 -24 -13 -63 -56 -66 -72 -1 -8 -5
-19 -9 -25 -4 -8 5 -14 26 -17 28 -5 36 -1 64 31 18 20 44 50 58 65 14 16 25
32 25 38 0 5 3 9 8 9 4 0 12 10 17 22 6 12 17 24 25 26 11 4 11 0 -3 -16 -13
-14 -16 -25 -10 -37 8 -13 15 -8 46 31 43 55 49 47 11 -11 -44 -66 -66 -86
-80 -74 -20 16 -84 -70 -89 -120 -5 -49 5 -52 39 -8 31 39 33 31 6 -19 -29
-50 -19 -53 14 -4 14 22 29 40 32 40 8 0 -7 -43 -21 -60 -7 -8 -16 -25 -20
-38 -7 -23 -7 -23 24 -7 36 18 41 8 9 -20 -20 -17 -21 -20 -5 -23 9 -2 17 -9
17 -15 0 -6 11 5 25 26 14 20 28 37 30 37 7 0 -44 -92 -60 -110 -18 -20 -20
-43 -3 -38 7 3 19 -1 26 -9 12 -11 11 -19 -5 -46 -11 -17 -22 -41 -26 -51 -7
-17 -6 -17 9 -5 14 11 18 11 21 1 3 -6 9 -10 14 -6 13 8 11 -7 -6 -40 -20 -37
-12 -46 10 -12 21 32 35 33 35 4 1 -19 5 -16 21 15 11 22 23 37 25 34 5 -5
-42 -147 -67 -199 -14 -32 -34 -38 -25 -8 18 60 18 65 -2 34 -33 -52 -59 -54
-31 -3 8 16 6 26 -14 52 -17 23 -22 38 -16 52 12 30 10 35 -6 29 -11 -5 -13
-2 -9 10 3 9 10 16 15 16 5 0 9 5 9 12 0 6 -8 4 -19 -6 -13 -11 -27 -15 -40
-11 -12 4 -21 2 -21 -4 0 -6 -5 -11 -11 -11 -6 0 -8 9 -3 23 l6 22 -25 -24
c-16 -14 -34 -22 -45 -19 -11 3 -27 1 -36 -4 -9 -5 4 11 29 36 39 39 44 49 35
66 -6 11 -19 20 -29 20 -21 0 -101 -67 -101 -85 0 -11 -98 -85 -113 -85 -3 0
-3 8 0 19 2 10 -1 24 -9 32 -7 8 -18 25 -24 39 -6 14 -17 40 -25 58 -8 18 -19
30 -26 27 -7 -2 -13 2 -13 11 0 8 -7 17 -15 20 -13 5 -12 10 6 25 12 11 17 19
11 19 -7 0 -12 7 -12 15 0 9 -11 20 -25 25 -14 5 -25 15 -25 21 0 8 -11 9 -32
5 -31 -5 -32 -5 -14 9 11 8 23 15 26 15 8 0 30 46 30 61 0 6 -10 3 -22 -5 -12
-9 -31 -16 -42 -16 -11 0 -16 -3 -13 -6 4 -4 -20 -37 -53 -74 -33 -37 -60 -70
-60 -72 0 -3 18 0 40 5 22 6 42 8 46 4 4 -4 -2 -38 -13 -77 -21 -70 -18 -88 8
-49 12 17 18 19 42 10 23 -9 32 -25 29 -52 -1 -4 8 -5 18 -2 26 7 25 5 -9 -72
-28 -62 -55 -89 -43 -43 4 17 2 20 -11 15 -12 -4 -14 -2 -10 11 3 9 10 23 16
30 17 22 -8 13 -30 -10 -29 -33 -36 -58 -17 -65 10 -4 14 -16 12 -35 -2 -17 3
-33 12 -38 12 -8 11 -10 -5 -10 -18 -1 -19 -1 -2 -11 11 -7 15 -17 11 -33 -6
-25 19 -55 31 -36 3 5 -1 10 -9 10 -9 0 -16 7 -16 15 0 19 28 8 41 -17 8 -15
13 -17 25 -7 11 9 14 8 14 -5 0 -9 6 -19 13 -22 16 -6 20 -81 4 -91 -7 -5 -12
-18 -12 -30 0 -28 -20 -26 -21 2 -1 11 -2 35 -3 53 -1 28 -4 32 -28 32 -16 0
-23 -4 -17 -8 6 -4 13 -40 16 -80 5 -64 3 -74 -14 -83 -10 -5 -23 -7 -29 -3
-6 4 -14 2 -18 -3 -3 -6 -17 -14 -31 -18 -25 -8 -25 -7 -6 13 10 12 15 27 12
34 -4 7 -13 23 -20 36 l-13 23 -34 -43 c-18 -24 -42 -52 -53 -62 -12 -13 -15
-21 -8 -24 18 -6 15 -16 -9 -31 -20 -12 -21 -11 -16 9 9 35 -17 17 -29 -21
-11 -32 -10 -34 12 -37 21 -3 24 -8 23 -40 -1 -20 -3 -29 -6 -19 -4 17 -26 21
-24 4 2 -8 -28 -67 -33 -67 -2 0 -3 7 -2 16 2 23 -21 29 -27 7 -2 -10 -3 -4 0
13 2 21 -3 36 -17 49 -19 17 -21 17 -40 0 -32 -29 -19 -44 18 -22 27 18 10
-13 -23 -38 -39 -32 -79 -102 -61 -109 7 -3 6 -8 -3 -14 -7 -5 -11 -14 -7 -20
9 -15 45 5 84 48 l33 35 -6 -32 c-8 -40 2 -73 21 -73 8 0 14 -5 14 -11 0 -8 4
-9 13 0 8 6 17 8 20 4 4 -3 7 3 7 15 0 11 5 24 10 27 6 4 8 11 5 16 -14 21 8
29 25 9 16 -19 19 -19 33 -5 9 8 20 15 26 15 6 0 17 14 26 30 17 33 30 40 21
13 -4 -13 2 -22 21 -30 24 -12 29 -10 66 27 21 22 44 40 51 40 8 0 8 -2 0 -8
-6 -4 -14 -16 -18 -27 -3 -11 -17 -32 -30 -46 -17 -18 -21 -30 -15 -40 7 -11
17 -5 45 29 20 23 40 40 45 36 12 -7 12 -41 0 -46 -5 -1 -12 -16 -15 -33 -5
-22 -4 -25 2 -10 9 19 9 19 21 -4 9 -17 16 -20 24 -12 18 18 30 12 22 -11 -9
-29 -7 -81 4 -110 8 -21 10 -19 29 22 19 41 21 43 27 23 9 -27 13 -28 35 -8
15 13 16 9 13 -55 -2 -46 0 -70 7 -70 6 0 8 5 5 10 -9 14 9 12 23 -2 10 -10
11 -6 6 20 -9 42 10 84 47 106 30 17 30 17 50 -9 15 -18 25 -23 33 -16 8 7 23
-1 49 -28 33 -35 36 -42 27 -66 -15 -40 -12 -70 11 -99 19 -25 20 -27 3 -43
-12 -13 -19 -14 -22 -5 -2 6 -11 12 -19 12 -12 0 -14 -8 -9 -39 5 -30 2 -40
-10 -45 -11 -4 -14 -13 -11 -28 4 -15 -1 -28 -16 -40 -12 -11 -22 -16 -23 -11
-1 4 -5 21 -9 37 -5 23 -8 27 -16 15 -14 -23 -10 -72 9 -100 48 -73 68 -99 78
-103 14 -6 11 29 -5 48 -7 8 -11 21 -9 28 3 8 12 0 21 -18 9 -17 14 -34 11
-37 -18 -18 113 -163 138 -154 7 2 34 -6 60 -19 26 -13 54 -24 63 -24 22 0 42
-47 29 -68 -9 -13 -6 -20 12 -34 40 -32 54 -24 54 31 0 28 -4 53 -10 56 -5 3
-10 21 -10 39 0 17 -5 37 -12 44 -7 7 -13 31 -14 55 -4 73 -27 187 -38 187
-11 0 -46 70 -46 91 0 14 -83 183 -92 187 -5 2 -8 17 -8 33 0 17 -6 32 -14 35
-12 4 -13 12 -5 32 6 15 6 28 1 31 -6 3 -8 23 -7 44 3 31 0 37 -16 37 -17 0
-18 3 -9 21 9 16 8 24 -4 38 -9 10 -16 22 -16 27 0 5 -13 34 -28 64 -16 30
-29 70 -30 88 0 18 -5 39 -11 45 -13 16 13 52 39 53 11 1 17 -2 15 -7 -3 -4 4
-10 15 -14 11 -4 18 -11 15 -16 -4 -5 -1 -9 4 -9 6 0 17 -16 25 -35 12 -27 21
-35 40 -35 14 0 29 -8 35 -17 8 -15 11 -15 26 -3 15 12 16 9 11 -47 -5 -54 -3
-61 14 -66 10 -2 23 0 29 6 20 20 11 -3 -9 -25 -25 -28 -26 -42 -1 -28 12 6
22 6 25 1 3 -5 15 -7 26 -4 22 6 26 -7 9 -24 -6 -6 -9 -17 -6 -25 3 -7 10 1
18 21 12 33 13 34 21 12 4 -13 6 -27 2 -32 -3 -5 -1 -9 5 -9 15 0 23 18 10 25
-6 5 -2 13 11 22 18 12 24 13 30 3 4 -7 13 -9 19 -6 16 10 14 26 -3 20 -23 -9
-39 31 -20 47 25 20 46 70 41 95 -2 13 2 32 9 41 13 17 13 17 14 1 0 -10 6
-17 13 -15 6 1 10 -5 8 -13 -7 -24 -32 -132 -41 -176 -10 -45 -45 -112 -70
-131 -12 -9 -13 -14 -2 -25 11 -11 14 -10 21 1 12 18 23 -2 14 -26 -6 -17 -5
-17 15 1 20 17 20 20 5 31 -14 11 -14 12 5 17 12 3 22 16 24 29 1 13 10 25 20
27 20 4 37 -73 19 -91 -8 -8 -11 -3 -11 18 -1 29 -1 29 -15 11 -23 -30 -20
-60 6 -53 15 4 19 2 15 -9 -17 -42 -18 -48 -2 -26 10 12 24 35 32 50 l14 27 0
-30 c0 -17 -5 -36 -12 -43 -9 -9 -9 -12 3 -12 8 0 19 -8 24 -18 8 -13 6 -22
-12 -41 -18 -19 -23 -20 -23 -8 0 24 -19 31 -39 13 -10 -9 -25 -14 -33 -11
-22 9 -44 -21 -28 -40 6 -8 9 -23 5 -35 -4 -11 -2 -20 4 -20 6 0 11 4 11 10 0
5 6 7 14 4 7 -3 20 2 29 10 13 14 14 11 10 -24 -4 -26 -2 -40 6 -40 16 0 14
-26 -4 -44 -8 -8 -15 -20 -15 -26 0 -20 34 -6 45 18 15 33 28 27 21 -10 -3
-18 -2 -28 2 -21 4 7 13 9 21 4 11 -7 11 -12 0 -30 -8 -11 -21 -21 -29 -21 -9
0 -21 -5 -28 -12 -9 -9 -12 -8 -12 5 0 25 -19 21 -42 -8 -24 -31 -60 -53 -52
-31 7 20 -14 30 -31 16 -21 -18 -19 -27 15 -60 17 -16 30 -36 30 -45 0 -9 5
-13 10 -10 6 4 8 10 6 14 -3 4 5 8 16 8 11 1 31 12 44 24 20 18 24 19 24 6 0
-8 -5 -28 -10 -42 -9 -23 -7 -28 10 -32 22 -6 26 -18 9 -29 -8 -4 -7 -9 2 -15
11 -7 9 -9 -6 -9 -14 0 -16 -3 -7 -8 7 -5 10 -16 6 -25 -4 -10 -1 -17 6 -17 7
0 10 -7 6 -15 -3 -8 -1 -15 5 -15 12 0 31 50 26 70 -4 16 5 27 42 48 22 13 23
12 18 -22 -6 -42 3 -44 57 -15 21 11 41 18 44 15 3 -3 0 -6 -6 -6 -7 0 -12 -7
-12 -15 0 -18 19 -20 24 -2 2 6 7 21 12 32 6 18 8 18 13 -7 6 -27 6 -27 31 -8
18 14 24 27 23 54 -1 45 11 46 25 4 5 -18 10 -25 11 -15 1 21 17 23 25 2 3 -8
11 -13 18 -11 7 1 10 1 6 -1 -5 -3 -5 -16 -2 -30 5 -18 3 -24 -5 -19 -6 4 -11
15 -12 24 0 12 -3 11 -9 -5 -5 -13 -14 -23 -20 -23 -5 0 -10 -9 -10 -20 0 -11
4 -20 9 -20 5 0 16 -3 25 -6 10 -4 16 -1 16 9 0 11 8 15 28 14 23 -2 27 -7 30
-38 2 -23 -2 -40 -12 -49 -14 -11 -16 -8 -17 21 0 33 -1 33 -10 9 -8 -20 -12
-22 -19 -10 -5 8 -10 10 -10 5 0 -6 7 -21 16 -33 14 -20 13 -23 -9 -44 -32
-31 -50 -66 -40 -81 4 -6 9 -30 10 -52 4 -49 9 -65 23 -65 6 0 8 5 5 11 -10
15 4 61 15 54 6 -3 10 -1 10 4 0 6 5 11 11 11 6 0 8 -9 4 -22 -6 -19 -5 -21 6
-11 10 10 17 7 36 -13 23 -25 31 -54 15 -54 -5 0 -14 -11 -20 -25 -8 -17 -16
-23 -28 -18 -15 5 -16 2 -10 -27 3 -19 12 -37 19 -42 9 -6 9 -10 -1 -20 -17
-17 -15 -55 4 -88 l17 -27 34 38 c29 32 38 37 54 29 10 -6 16 -16 14 -23 -2
-6 -6 -49 -9 -95 -8 -120 -13 -132 -47 -132 -16 0 -30 5 -30 10 -1 6 -3 15 -4
20 -1 6 -3 13 -4 16 0 4 -7 1 -15 -5 -12 -10 -13 -8 -9 10 4 14 2 20 -5 15 -6
-3 -12 -1 -15 6 -2 7 -2 0 1 -17 3 -16 6 -39 6 -50 0 -19 32 -61 84 -110 22
-20 22 -25 13 -86 -6 -39 -17 -70 -28 -79 -32 -27 -93 -108 -93 -123 0 -8 9
-26 20 -40 11 -14 20 -32 20 -41 0 -16 -54 -111 -94 -165 -14 -19 -26 -40 -26
-47 0 -16 -96 -104 -113 -104 -8 0 -21 -15 -28 -32 -7 -18 -31 -52 -53 -76
-65 -71 -180 -92 -243 -42 -24 18 -28 19 -43 5 -23 -21 -57 -12 -102 25 -47
39 -52 72 -22 132 23 45 23 47 5 60 -26 19 -79 106 -93 153 -6 22 -14 65 -17
95 l-6 54 -40 4 c-70 7 -75 21 -7 22 54 0 62 2 62 19 0 10 -6 24 -14 30 -20
17 -38 134 -30 197 6 54 6 54 -21 54 -55 0 -138 32 -178 69 -30 28 -41 48 -48
86 -5 27 -18 58 -28 69 -37 41 -44 71 -51 216 -10 180 -7 214 20 278 22 51 22
52 4 97 -11 25 -34 57 -51 71 -24 18 -33 33 -33 55 0 22 -4 29 -17 27 -11 -2
-19 6 -23 21 -3 14 -10 26 -16 28 -12 4 -44 -48 -44 -72 0 -9 -4 -13 -10 -10
-5 3 -10 21 -10 39 0 18 -5 58 -11 89 l-11 55 -23 -24 c-23 -24 -24 -24 -30
-5 -3 11 -1 29 4 40 12 22 14 64 4 74 -3 4 -15 0 -25 -10 -24 -21 -30 -14 -19
23 6 23 4 35 -8 51 l-17 20 -22 -24 c-18 -21 -25 -23 -37 -13 -8 7 -15 19 -15
27 0 9 -21 -4 -52 -31 -29 -25 -53 -44 -55 -42 -2 2 10 34 26 71 27 65 28 70
12 91 -9 12 -20 19 -25 14 -17 -17 -33 13 -22 42 11 30 0 51 -14 28 -8 -12
-12 -8 -22 17 -10 26 -17 32 -32 27 -18 -6 -19 -2 -13 56 l5 62 -24 -23 -24
-22 0 24 c0 13 9 44 20 68 20 42 18 74 -1 39 -5 -9 -23 -27 -40 -38 -24 -18
-33 -19 -44 -10 -12 10 -16 9 -21 -4 -13 -35 -27 -15 -21 32 l6 47 -37 -41
c-43 -48 -89 -77 -79 -50 5 12 0 16 -18 16 -14 0 -25 5 -25 11 0 5 -5 7 -10 4
-18 -11 -10 14 9 27 18 13 51 78 51 101 0 6 -10 1 -23 -11 -22 -20 -47 -29
-47 -17 0 4 7 20 16 36 16 32 12 65 -6 54 -7 -4 -8 3 -4 21 6 25 5 26 -19 20
-15 -3 -35 -2 -44 3 -10 5 -35 17 -55 27 -37 18 -49 34 -27 34 7 0 9 14 5 40
-3 21 -1 42 4 45 5 3 6 13 3 22 -4 9 1 21 11 29 17 12 16 14 -4 34 -18 18 -26
20 -52 11 -26 -9 -29 -8 -24 5 3 9 6 20 6 25 0 4 7 6 15 3 10 -4 15 0 15 10 0
9 -12 21 -26 27 -24 9 -25 11 -12 27 30 34 29 52 -2 71 -30 18 -30 18 -10 36
27 24 25 45 -4 45 -22 0 -24 4 -23 50 0 28 4 50 9 50 12 0 10 58 -3 62 -6 2
-12 17 -13 34 -2 17 -5 35 -9 40 -3 5 -5 30 -5 54 1 46 -9 80 -25 91 -5 4 -4
16 4 30 9 16 14 66 15 143 1 99 4 120 18 128 9 5 16 18 16 28 0 10 5 22 10 25
6 3 7 17 4 31 -3 13 -1 30 5 38 6 7 11 29 11 47 -1 62 12 124 32 152 11 16 18
39 16 56 -2 21 5 38 21 55 14 15 24 39 25 58 1 18 11 49 24 68 12 19 22 41 22
48 0 6 4 12 8 12 5 0 16 16 25 36 10 20 30 52 46 72 16 21 35 55 42 77 7 22
17 44 21 49 4 6 8 25 8 42 0 18 5 36 11 39 6 4 9 26 8 50 -2 24 2 49 8 57 12
14 12 42 0 54 -4 4 -2 13 4 20 6 8 13 64 15 126 3 62 6 131 8 153 2 22 -1 46
-7 52 -6 9 -4 21 7 38 24 36 -1 33 -39 -5 -310 -313 -465 -464 -487 -476 -40
-21 -57 -17 -64 14 -3 15 -9 36 -13 47 -16 38 -41 154 -41 184 0 16 -4 33 -10
36 -5 3 -10 17 -10 31 0 14 -5 34 -10 45 -6 10 -7 19 -2 19 5 0 3 34 -4 76 -7
42 -16 95 -19 118 -4 22 -8 52 -10 66 -2 14 -6 52 -10 85 -4 33 -10 65 -13 70
-4 6 -8 19 -8 30 -1 11 -4 34 -7 50 -9 53 -17 119 -22 175 -2 30 -13 119 -24
196 -11 78 -25 180 -31 228 -10 84 -26 136 -41 136 -19 0 -18 35 1 50 l21 16
-30 56 c-19 35 -27 59 -21 63 12 7 14 35 3 35 -5 0 -17 -6 -28 -12z m4525
-1207 c0 -5 -3 -16 -6 -25 -7 -18 -44 -22 -44 -5 0 6 6 9 14 6 8 -3 17 1 20 9
4 11 0 13 -18 8 -13 -3 -27 -1 -30 5 -5 7 5 11 28 11 20 0 36 -4 36 -9z m-170
-76 c7 -8 8 -15 2 -15 -5 0 -15 7 -22 15 -7 8 -8 15 -2 15 5 0 15 -7 22 -15z
m256 -31 l21 -22 -20 -6 c-22 -5 -72 38 -62 54 8 13 36 1 61 -26z m-101 -42
c-3 -3 -11 0 -18 7 -9 10 -8 11 6 5 10 -3 15 -9 12 -12z m-60 -6 c19 -8 35
-18 35 -21 0 -3 -4 -3 -10 0 -5 3 -15 3 -20 0 -6 -4 13 -18 41 -32 49 -25 50
-27 29 -38 l-22 -12 24 -15 c14 -9 35 -18 49 -21 l24 -4 -25 -2 c-30 -1 -138
58 -122 68 6 4 -3 16 -24 30 -23 16 -31 27 -23 31 6 4 8 13 5 19 -9 15 -2 14
39 -3z m115 -56 c8 -5 11 -10 5 -10 -5 0 -17 5 -25 10 -8 5 -10 10 -5 10 6 0
17 -5 25 -10z m-120 -60 c12 -17 15 -28 8 -25 -11 5 -42 55 -33 55 2 0 13 -13
25 -30z m-150 -50 c0 -14 -14 -12 -28 2 -19 19 -14 30 8 18 11 -6 20 -15 20
-20z m351 9 c-16 -6 -28 -6 -35 1 -7 7 1 10 25 9 32 0 33 -1 10 -10z m-4 -55
c-7 -7 -37 7 -37 17 0 6 9 5 21 -1 11 -7 19 -14 16 -16z m-2294 -15 c-23 -40
-102 -123 -110 -115 -3 3 9 22 26 43 18 21 44 52 59 70 35 41 48 42 25 2z m23
-17 c-16 -15 -25 -20 -21 -12 13 25 38 50 44 45 3 -3 -8 -18 -23 -33z m2319
18 c8 -13 -5 -13 -25 0 -13 8 -13 10 2 10 9 0 20 -4 23 -10z m-769 -14 c10 -8
17 -17 14 -19 -3 -3 -16 3 -30 13 -29 22 -14 27 16 6z m274 -21 c14 -19 14
-19 -2 -6 -10 7 -18 18 -18 24 0 6 1 8 3 6 1 -2 9 -13 17 -24z m-1800 8 c-1
-5 -12 -21 -27 -38 -26 -30 -26 -30 11 33 8 13 16 16 16 5z m1635 -3 c3 -5 1
-10 -4 -10 -6 0 -11 5 -11 10 0 6 2 10 4 10 3 0 8 -4 11 -10z m-1676 -74 c-2
-2 -15 -9 -29 -15 -24 -11 -24 -11 -6 3 16 13 49 24 35 12z m2066 -17 c11 -17
-1 -21 -15 -4 -8 9 -8 15 -2 15 6 0 14 -5 17 -11z m-2035 -166 c-11 -17 -11
-17 -6 0 3 10 6 24 7 30 0 9 2 9 5 0 3 -7 0 -20 -6 -30z m1410 -18 c14 -19 14
-19 -2 -6 -10 7 -18 18 -18 24 0 6 1 8 3 6 1 -2 9 -13 17 -24z m-80 -4 c0 -5
3 -17 7 -27 9 -23 -13 -10 -27 17 -9 15 -7 19 5 19 8 0 15 -4 15 -9z m388 -41
c17 -18 32 -37 32 -42 0 -5 -19 9 -42 31 -24 22 -46 41 -50 41 -5 0 -8 5 -8
10 0 15 29 -2 68 -40z m589 44 c-3 -3 -12 -4 -19 -1 -8 3 -5 6 6 6 11 1 17 -2
13 -5z m-2347 -24 c-6 -11 -13 -20 -16 -20 -2 0 0 9 6 20 6 11 13 20 16 20 2
0 0 -9 -6 -20z m154 -24 c-9 -15 -19 -25 -21 -22 -3 2 3 16 13 30 9 15 19 25
21 22 3 -2 -3 -16 -13 -30z m-360 -11 c-4 -8 -11 -15 -16 -15 -6 0 -5 6 2 15
7 8 14 15 16 15 2 0 1 -7 -2 -15z m1216 -45 c-4 -8 -5 -36 -3 -62 4 -53 -14
-67 -23 -18 -4 17 -11 30 -16 30 -5 0 -7 -8 -5 -17 3 -10 8 -31 11 -48 l6 -30
-15 25 c-9 16 -14 52 -15 98 0 65 2 72 20 72 16 0 19 -5 14 -30 -4 -19 -2 -30
5 -30 6 0 11 17 12 38 1 32 2 34 8 12 5 -14 5 -32 1 -40z m87 28 c-3 -8 -6 -5
-6 6 -1 11 2 17 5 13 3 -3 4 -12 1 -19z m-13 -57 c-9 -11 -24 15 -23 42 l1 32
12 -35 c8 -19 12 -37 10 -39z m-1235 32 c-61 -73 -79 -93 -79 -85 0 5 9 20 21
33 11 13 29 34 40 47 10 12 22 22 25 22 4 0 1 -8 -7 -17z m17 -31 c-18 -16
-18 -16 -6 6 6 13 14 21 18 18 3 -4 -2 -14 -12 -24z m-213 -9 c-5 -12 -3 -14
8 -8 11 6 10 4 -1 -7 -19 -18 -70 -40 -70 -30 0 12 14 27 40 45 30 21 31 21
23 0z m372 -13 c-4 -12 -9 -19 -12 -17 -3 3 -2 15 2 27 4 12 9 19 12 17 3 -3
2 -15 -2 -27z m741 4 c8 -31 -17 -54 -28 -26 -5 14 -7 13 -7 -5 -1 -13 -5 -23
-10 -23 -5 0 -8 11 -7 25 0 14 4 25 9 25 4 0 7 7 7 15 0 25 29 17 36 -11z
m-126 1 c0 -8 -4 -15 -10 -15 -5 0 -10 7 -10 15 0 8 5 15 10 15 6 0 10 -7 10
-15z m-525 -5 c-3 -5 -11 -10 -16 -10 -6 0 -7 5 -4 10 3 6 11 10 16 10 6 0 7
-4 4 -10z m677 -35 c3 -13 1 -22 -3 -19 -9 5 -13 44 -5 44 2 0 6 -11 8 -25z
m-1222 0 c0 -2 -10 -9 -22 -15 -22 -11 -22 -10 -4 4 21 17 26 19 26 11z m2043
-30 c11 -16 13 -23 5 -20 -15 6 -42 45 -31 45 5 0 16 -12 26 -25z m-1699 0
c-4 -8 -11 -15 -16 -15 -6 0 -5 6 2 15 7 8 14 15 16 15 2 0 1 -7 -2 -15z m86
7 c0 -20 -27 -43 -43 -36 -14 5 -15 9 -6 20 6 8 15 12 19 9 5 -3 11 -1 15 5 7
12 15 13 15 2z m707 -79 c-3 -10 -5 -4 -5 12 0 17 2 24 5 18 2 -7 2 -21 0 -30z
m-654 12 c-3 -9 -8 -14 -10 -11 -3 3 -2 9 2 15 9 16 15 13 8 -4z m864 -7 c-3
-8 -6 -5 -6 6 -1 11 2 17 5 13 3 -3 4 -12 1 -19z m316 -8 c10 -16 14 -30 9
-30 -6 0 -13 8 -16 17 -6 14 -9 15 -15 4 -6 -9 -8 -5 -8 13 0 34 9 33 30 -4z
m1147 -10 c8 -5 15 -13 15 -17 0 -15 68 -93 87 -99 15 -4 18 -12 14 -40 -5
-26 -2 -34 9 -34 8 0 15 -4 15 -10 0 -5 -4 -10 -10 -10 -5 0 -10 -4 -10 -10 0
-5 6 -10 13 -10 7 0 23 -23 36 -51 26 -61 22 -61 175 11 98 46 111 50 181 50
129 0 243 -55 304 -146 56 -85 35 -188 -45 -214 -21 -7 -64 -28 -96 -47 -64
-37 -183 -94 -300 -142 -42 -18 -87 -42 -101 -55 -14 -13 -32 -26 -41 -29 -9
-4 -16 -13 -16 -22 0 -9 -12 -18 -30 -21 -32 -7 -36 -14 -20 -30 13 -13 1 -54
-17 -54 -26 0 -53 20 -53 40 0 11 -5 20 -11 20 -6 0 -9 6 -7 12 5 15 -4 24
-59 61 -43 27 -51 41 -33 52 5 3 -5 22 -22 41 -40 44 -45 78 -11 69 13 -3 23
-1 23 5 0 15 -23 53 -44 73 -19 17 -19 18 -1 30 16 13 15 15 -16 35 -23 15
-28 22 -16 22 21 0 22 16 1 24 -23 9 -36 -3 -29 -25 4 -10 2 -19 -3 -19 -6 0
-8 -9 -5 -20 5 -17 0 -20 -27 -20 -24 0 -31 4 -26 15 8 21 -3 45 -20 45 -12 0
-13 -4 -3 -22 8 -16 9 -23 1 -26 -7 -2 -8 -11 -2 -27 6 -17 5 -27 -6 -36 -8
-7 -13 -18 -10 -26 3 -7 -1 -13 -8 -13 -8 0 -17 -11 -20 -25 -5 -21 -12 -25
-40 -25 -29 0 -33 3 -29 20 3 11 9 17 14 14 5 -3 9 0 9 5 0 6 -4 11 -10 11 -5
0 -10 9 -10 21 0 21 21 49 38 49 10 0 1 68 -12 88 -5 8 -2 10 8 6 9 -3 16 -10
16 -15 0 -5 4 -9 9 -9 5 0 7 10 3 22 -3 14 -2 19 6 14 16 -9 10 30 -6 46 -7 7
-12 15 -12 19 0 10 30 39 40 39 9 0 34 -39 46 -72 11 -29 54 -34 54 -6 0 5 -7
8 -15 4 -13 -5 -20 5 -12 19 1 2 -9 12 -22 21 -28 20 -56 83 -43 96 6 6 17 6
31 -1 24 -13 27 -27 9 -34 -9 -3 -1 -16 20 -35 21 -20 38 -29 49 -25 13 5 15
2 9 -23 -6 -23 -5 -26 5 -17 8 8 18 9 31 2 12 -6 18 -6 18 1 0 5 -8 10 -17 10
-17 1 -17 2 1 15 18 13 17 14 -8 21 -35 9 -33 25 3 18 35 -7 48 17 26 49 -8
12 -15 28 -15 36 0 7 -8 20 -17 28 -10 8 -13 12 -7 9 19 -9 56 27 49 47 -4 9
-11 17 -16 17 -5 0 -9 11 -9 23 0 13 -3 27 -7 31 -4 3 -8 13 -9 21 -2 11 2 12
16 5 25 -13 40 -12 18 1 -10 5 -18 19 -18 29 0 11 -4 20 -10 20 -5 0 -10 5
-10 10 0 6 7 10 16 10 11 0 14 6 9 20 -4 12 -1 27 5 35 14 17 20 18 40 5z
m-1643 -32 c-3 -7 -5 -2 -5 12 0 14 2 19 5 13 2 -7 2 -19 0 -25z m429 -83 c18
-13 64 -102 57 -109 -3 -3 -1 -12 6 -19 9 -12 7 -13 -12 -10 -28 6 -96 108
-94 143 0 14 -2 41 -6 60 -7 34 -7 33 14 -10 12 -25 28 -49 35 -55z m24 42 c0
-42 -17 -24 -18 20 -1 28 1 34 8 23 5 -8 10 -28 10 -43z m-1730 5 c0 -5 -16
-16 -35 -25 -41 -20 -47 -9 -7 15 31 19 42 21 42 10z m400 -11 c0 -5 -16 -24
-37 -43 -20 -18 -51 -48 -70 -65 -37 -37 -48 -40 -56 -19 -4 10 -1 13 9 9 10
-4 17 2 21 15 3 12 13 24 22 27 9 3 36 23 61 45 50 44 50 44 50 31z m1118 -56
c-2 -12 -7 -7 -15 16 -12 30 -11 32 3 17 9 -8 14 -23 12 -33z m118 -27 c15
-40 27 -80 25 -87 -2 -12 0 -13 12 -3 12 10 17 8 31 -12 9 -14 16 -30 16 -36
0 -9 14 -14 33 -11 4 0 7 -6 7 -14 0 -9 11 -26 23 -38 39 -37 57 -70 47 -87
-8 -13 -10 -12 -10 2 0 17 -61 88 -75 88 -4 0 -2 -6 4 -14 6 -7 10 -20 8 -27
-2 -8 -2 -11 0 -6 8 13 22 -3 16 -18 -3 -9 1 -15 10 -15 10 0 19 -13 23 -36 4
-20 20 -63 36 -96 24 -50 31 -58 43 -48 17 14 19 7 5 -20 -7 -12 -6 -18 3 -17
40 1 67 -4 67 -14 0 -6 -7 -9 -15 -6 -26 10 -26 -10 0 -41 14 -16 25 -37 25
-45 0 -8 7 -17 15 -21 8 -3 15 -10 15 -17 0 -6 -7 -9 -15 -5 -8 3 -15 0 -16
-7 0 -9 -2 -9 -6 1 -2 6 -9 12 -14 12 -10 0 11 -52 26 -62 7 -5 5 -15 -3 -29
-12 -19 -22 -79 -23 -131 0 -11 -8 -18 -20 -18 -12 0 -19 -7 -19 -20 0 -10 -9
-24 -20 -30 -17 -9 -22 -7 -32 14 -6 14 -15 23 -20 20 -5 -3 -18 2 -29 12 -18
16 -19 16 -19 -2 0 -11 5 -25 12 -32 9 -9 5 -12 -18 -12 -17 0 -35 -5 -42 -12
-9 -9 -17 -8 -37 2 -14 7 -26 11 -27 9 -21 -35 -28 -52 -22 -60 3 -6 -4 -13
-16 -16 -11 -3 -19 -11 -16 -18 2 -6 0 -18 -5 -26 -7 -12 -10 -12 -18 -1 -6
11 -10 10 -15 -4 -5 -13 -9 -15 -18 -6 -7 7 -20 12 -30 12 -10 0 -18 5 -18 10
0 6 -9 10 -20 10 -11 0 -23 7 -27 17 -5 14 -8 13 -14 -5 -11 -28 -29 -28 -29
0 0 16 -3 19 -11 11 -14 -14 -59 26 -60 53 0 11 -13 -7 -29 -39 -33 -69 -39
-76 -33 -42 6 30 -13 34 -22 5 -8 -25 -25 -26 -26 -2 -3 40 -1 80 6 137 5 46
3 67 -9 90 -9 17 -16 36 -16 44 0 8 -6 11 -15 7 -9 -3 -15 0 -15 10 0 10 6 14
15 10 11 -4 15 2 15 22 0 15 9 35 20 45 11 9 20 23 20 30 0 7 11 23 25 35 26
23 33 15 13 -17 -9 -15 -8 -22 6 -36 16 -16 17 -16 11 7 -5 18 -2 27 9 31 21
8 21 51 0 72 -9 8 -14 22 -11 29 8 20 -4 28 -20 15 -9 -9 -13 -8 -13 0 0 6 5
11 10 11 6 0 10 8 10 17 0 15 2 14 15 -3 14 -18 14 -18 15 4 0 15 7 26 19 29
10 2 28 18 40 34 27 36 45 38 38 4 -3 -16 0 -24 7 -22 6 2 10 21 8 46 -2 23 2
49 8 56 13 15 16 137 5 155 -3 5 -8 20 -10 32 -4 23 -4 23 11 3 8 -11 18 -32
21 -48 3 -15 9 -29 13 -32 13 -8 -3 104 -20 136 -13 24 -13 29 3 29 12 0 31
-46 54 -130 4 -13 5 -13 13 0 7 11 11 3 16 -28 6 -40 8 -41 20 -23 8 11 11 26
8 35 -4 10 -1 16 8 16 7 0 19 14 25 31 11 29 14 30 29 18 16 -13 16 -12 5 9
-6 12 -23 29 -37 38 -14 10 -31 33 -39 52 -20 46 -19 75 1 37 24 -46 38 -56
30 -20 -25 108 -20 112 20 13z m-1046 48 c0 -2 -8 -10 -17 -17 -16 -13 -17
-12 -4 4 13 16 21 21 21 13z m863 -69 c8 -6 6 -7 -5 -3 -10 3 -18 1 -18 -4 0
-6 -4 -10 -8 -10 -7 0 -9 75 -2 90 1 3 6 -11 12 -30 5 -19 15 -39 21 -43z
m-1443 59 c0 -11 -19 -15 -25 -6 -3 5 1 10 9 10 9 0 16 -2 16 -4z m907 -18
c-3 -8 -6 -5 -6 6 -1 11 2 17 5 13 3 -3 4 -12 1 -19z m-16 -69 c-5 -13 -10
-19 -10 -12 -1 15 10 45 15 40 3 -2 0 -15 -5 -28z m-236 -9 c-3 -5 -11 -10
-16 -10 -6 0 -7 5 -4 10 3 6 11 10 16 10 6 0 7 -4 4 -10z m745 -15 c0 -8 -4
-15 -10 -15 -5 0 -7 7 -4 15 4 8 8 15 10 15 2 0 4 -7 4 -15z m756 -12 c-6 -6
-36 9 -36 18 0 5 9 4 20 -3 10 -7 18 -14 16 -15z m-786 -45 c0 -9 -4 -20 -10
-23 -5 -3 -10 -2 -10 3 0 5 -3 25 -6 43 -6 32 -6 33 9 14 9 -11 17 -28 17 -37z
m-750 38 c0 -3 -4 -8 -10 -11 -5 -3 -10 -1 -10 4 0 6 5 11 10 11 6 0 10 -2 10
-4z m1990 -6 c0 -5 -2 -10 -4 -10 -3 0 -8 5 -11 10 -3 6 -1 10 4 10 6 0 11 -4
11 -10z m-749 -90 c4 0 10 -7 13 -16 3 -9 -11 -2 -34 16 -22 17 -40 36 -40 41
0 6 12 -2 27 -16 15 -14 31 -25 34 -25z m-1229 -12 c-7 -7 -12 -8 -12 -2 0 6
3 14 7 17 3 4 9 5 12 2 2 -3 -1 -11 -7 -17z m784 -23 c1 -14 -2 -22 -7 -19
-11 6 -12 44 -1 44 4 0 8 -11 8 -25z m-672 -20 c-4 -8 -11 -15 -16 -15 -6 0
-5 6 2 15 7 8 14 15 16 15 2 0 1 -7 -2 -15z m-444 -39 c0 -3 -4 -8 -10 -11 -5
-3 -10 -1 -10 4 0 6 5 11 10 11 6 0 10 -2 10 -4z m200 -69 c0 -2 -10 -12 -22
-23 l-23 -19 19 23 c18 21 26 27 26 19z m530 -15 c0 -5 -7 -17 -15 -28 -14
-18 -14 -17 -4 9 12 27 19 34 19 19z m-680 -91 c-11 -23 -22 -41 -24 -41 -2 0
-3 13 -2 29 1 21 5 27 16 23 8 -3 12 -2 8 3 -4 4 -3 14 4 22 20 25 20 6 -2
-36z m70 6 c0 -1 -23 -25 -52 -52 -50 -47 -43 -32 12 27 21 24 40 35 40 25z
m860 -9 c0 -19 -18 -43 -25 -36 -4 3 -2 16 5 27 12 24 20 27 20 9z m-359 -81
c-10 -9 -11 -8 -5 6 3 10 9 15 12 12 3 -3 0 -11 -7 -18z m1706 -33 c-3 -3 -12
-4 -19 -1 -8 3 -5 6 6 6 11 1 17 -2 13 -5z m-110 -26 c-3 -8 -6 -5 -6 6 -1 11
2 17 5 13 3 -3 4 -12 1 -19z m51 -90 c14 -14 16 -38 4 -38 -5 0 -14 11 -20 25
-12 26 -4 33 16 13z m-1373 -8 c3 -5 -1 -10 -9 -10 -9 0 -16 5 -16 10 0 6 4
10 9 10 6 0 13 -4 16 -10z m785 -61 c0 -5 -4 -9 -10 -9 -5 0 -10 7 -10 16 0 8
5 12 10 9 6 -3 10 -10 10 -16z m-811 -46 c1 -15 -5 -23 -15 -23 -11 0 -14 5
-10 16 3 9 6 28 7 42 0 24 1 25 9 7 5 -11 9 -30 9 -42z m-44 20 c-5 -10 -9
-22 -9 -27 -1 -9 -26 -22 -26 -13 0 2 7 18 16 36 16 33 33 36 19 4z m-527 -23
c0 -22 -4 -37 -9 -34 -10 6 -12 35 -3 58 10 25 13 19 12 -24z m-161 -77 c-3
-10 -5 -2 -5 17 0 19 2 27 5 18 2 -10 2 -26 0 -35z m723 13 c0 -20 -6 -36 -14
-39 -19 -8 -38 16 -30 37 4 11 0 16 -12 17 -18 0 -17 1 1 9 42 18 55 12 55
-24z m1785 -7 c38 -30 87 -40 102 -20 11 14 14 13 35 -6 l22 -23 -34 0 c-22 0
-30 -3 -22 -9 10 -6 10 -10 -3 -21 -12 -10 -13 -15 -3 -28 11 -13 8 -15 -25
-9 -33 5 -37 4 -27 -8 7 -8 15 -13 19 -11 4 3 13 -5 20 -16 12 -19 11 -20 -16
-14 -32 8 -93 47 -93 59 0 5 10 5 23 2 17 -5 19 -4 7 4 -8 6 -23 8 -32 5 -12
-4 -18 0 -18 11 0 10 5 13 13 9 7 -5 6 0 -3 11 -14 17 -13 18 30 12 l45 -7
-37 16 c-21 9 -38 21 -38 26 0 6 -8 17 -17 24 -17 12 -17 13 3 14 12 0 34 -10
49 -21z m95 -3 c0 -9 -9 -14 -20 -13 -22 1 -27 13 -7 20 21 9 27 7 27 -7z
m-2380 1 c0 -2 -10 -12 -22 -23 l-23 -19 19 23 c18 21 26 27 26 19z m373 -39
c-8 -68 -54 -200 -78 -224 -13 -13 -20 -25 -17 -28 3 -3 0 -6 -7 -6 -14 0 -7
50 8 60 14 10 44 86 62 158 11 41 19 76 19 78 0 2 4 4 9 4 5 0 7 -19 4 -42z
m887 -13 c0 -8 -7 -15 -15 -15 -16 0 -20 12 -8 23 11 12 23 8 23 -8z m-783
-42 c-3 -10 -5 -2 -5 17 0 19 2 27 5 18 2 -10 2 -26 0 -35z m-1117 18 c-4 -9
-24 -29 -44 -46 -39 -32 -45 -45 -21 -45 8 0 15 -4 15 -10 0 -5 9 -10 20 -10
11 0 23 -7 27 -16 4 -11 13 -14 30 -9 17 4 23 2 18 -6 -5 -8 -1 -9 14 -4 17 5
21 3 19 -16 -2 -12 3 -24 10 -26 6 -3 13 4 13 14 1 16 2 16 6 1 2 -10 9 -18
15 -18 6 0 21 -12 34 -27 l24 -28 -25 -13 c-29 -15 -33 -31 -7 -33 9 -1 22 -2
27 -4 6 -1 15 -3 20 -4 6 0 -3 -9 -18 -20 -15 -10 -35 -28 -43 -40 -14 -19
-13 -21 0 -21 9 0 16 5 16 10 0 6 7 10 15 10 8 0 24 14 37 30 23 32 44 40 34
14 -4 -9 -1 -23 5 -30 8 -10 8 -14 0 -14 -6 0 -11 5 -11 10 0 12 -37 -7 -60
-31 -42 -43 -139 -47 -140 -5 0 5 6 3 14 -3 9 -8 16 -9 21 -2 3 6 -7 14 -22
17 -27 7 -60 41 -55 57 1 4 -4 10 -12 13 -8 3 -12 13 -9 25 4 13 -2 27 -16 40
-20 19 -25 32 -22 53 4 18 -11 46 -25 46 -18 0 -18 8 2 27 11 11 12 18 4 23
-7 4 -3 16 12 35 18 23 19 27 6 22 -30 -11 -28 8 3 22 16 7 27 16 24 20 -2 4
9 8 25 8 23 0 27 -3 20 -16z m2964 -96 c11 -8 17 -17 14 -20 -8 -8 -58 13 -58
25 0 14 22 12 44 -5z m56 -31 c0 -2 -7 -4 -15 -4 -8 0 -15 4 -15 10 0 5 7 7
15 4 8 -4 15 -8 15 -10z m-2664 -21 c-10 -10 -19 5 -10 18 6 11 8 11 12 0 2
-7 1 -15 -2 -18z m-596 -243 c0 -11 -2 -20 -4 -20 -2 0 -6 9 -9 20 -3 11 -1
20 4 20 5 0 9 -9 9 -20z m468 -7 c-8 -10 -14 -11 -16 -4 -2 6 -8 9 -12 6 -5
-3 -7 -12 -3 -20 3 -8 1 -15 -3 -16 -5 0 -22 -2 -38 -4 -27 -4 -28 -3 -10 16
9 10 23 19 29 19 7 0 18 6 25 14 6 8 18 12 26 9 12 -4 12 -8 2 -20z m-504 -87
c-6 -16 -34 -30 -34 -18 0 10 22 32 32 32 4 0 5 -6 2 -14z m-120 -71 c3 -8 15
-14 28 -12 21 2 23 -2 23 -38 0 -29 -4 -40 -15 -41 -8 0 -32 -8 -54 -18 -21
-9 -40 -15 -43 -12 -14 13 10 34 51 46 28 8 46 18 46 28 0 12 -3 12 -15 2 -8
-7 -49 -14 -91 -17 l-77 -5 35 31 c54 47 101 63 112 36z m269 -40 c-24 -18
-29 -10 -13 20 12 22 15 23 23 10 6 -12 4 -20 -10 -30z m-113 -49 c0 -2 -8
-10 -17 -17 -16 -13 -17 -12 -4 4 13 16 21 21 21 13z m692 -67 l-19 -31 -5 26
c-4 20 0 31 16 42 28 20 33 1 8 -37z m58 4 c0 -19 -3 -24 -10 -17 -6 6 -8 18
-4 27 9 24 14 21 14 -10z m121 -186 c-13 -13 -15 21 -3 50 6 15 8 13 10 -11 2
-16 -1 -33 -7 -39z m-60 -20 c-8 -8 -11 -7 -11 4 0 20 13 34 18 19 3 -7 -1
-17 -7 -23z m154 -396 c-3 -12 -13 -21 -21 -21 -17 0 -18 14 -2 40 15 24 33
10 23 -19z m75 -125 c0 -3 -4 -8 -10 -11 -5 -3 -10 -1 -10 4 0 6 5 11 10 11 6
0 10 -2 10 -4z m150 -117 c0 -6 -4 -7 -10 -4 -5 3 -10 11 -10 16 0 6 5 7 10 4
6 -3 10 -11 10 -16z m60 -34 c0 -1 -9 -5 -19 -8 -13 -3 -18 -1 -14 9 4 10 33
10 33 -1z m34 0 c-4 -8 -10 -15 -15 -15 -5 0 -9 7 -9 15 0 8 7 15 15 15 9 0
12 -6 9 -15z m1366 -180 c0 -14 -7 -36 -15 -48 -15 -24 -10 -71 8 -60 7 4 8 0
4 -11 -4 -10 -7 -22 -7 -28 0 -6 -9 -8 -21 -5 -20 5 -25 -1 -31 -37 -2 -16 3
-20 30 -22 33 -2 51 10 32 21 -12 7 -4 25 11 25 5 0 9 -11 9 -24 0 -16 7 -27
19 -31 23 -7 171 -156 187 -188 6 -12 18 -35 27 -52 17 -34 37 -132 37 -184 0
-20 -9 -65 -20 -99 -11 -35 -20 -85 -20 -110 0 -54 -39 -130 -89 -178 -17 -16
-31 -35 -31 -41 0 -41 -101 -83 -149 -63 -20 8 -41 8 -74 0 -51 -11 -124 6
-160 38 -15 13 -22 14 -38 4 -24 -15 -39 -8 -39 19 0 14 -7 19 -28 19 -35 0
-112 48 -139 86 -47 66 -55 95 -57 193 -2 92 0 98 30 150 29 48 31 55 17 69
-13 14 -12 17 14 28 15 7 22 13 14 13 -8 1 -3 9 13 22 14 11 26 26 26 33 0 28
44 54 88 52 64 -3 69 6 32 52 -33 42 -43 88 -20 102 10 6 9 17 -3 51 -14 39
-16 41 -16 16 -1 -37 -21 -25 -21 12 0 21 6 31 23 36 17 6 19 8 6 12 -11 2
-15 11 -12 23 5 17 6 17 22 2 10 -10 16 -23 13 -29 -2 -7 3 -16 12 -19 9 -3
16 -15 16 -25 0 -10 5 -19 10 -19 17 0 11 41 -10 67 -21 27 -26 53 -11 53 6 0
13 -4 16 -10 9 -15 25 -12 25 5 0 8 9 19 19 24 23 13 34 1 51 -54 9 -32 16
-40 35 -40 14 0 21 5 18 13 -3 6 -11 12 -19 12 -8 0 -14 10 -14 26 0 21 4 25
20 21 10 -3 24 1 31 9 7 9 8 14 1 14 -6 0 -13 -6 -15 -12 -3 -8 -6 -6 -6 5 -1
22 41 23 59 2 21 -26 39 -17 45 23 10 55 13 62 30 62 9 0 15 -9 15 -25z m-403
-182 c-15 -16 -17 -16 -17 -1 0 9 6 18 13 21 20 7 22 -2 4 -20z m-113 -214
c-8 -14 -30 1 -30 21 0 18 2 18 18 3 10 -8 15 -19 12 -24z m-757 -825 c-3 -3
-12 -4 -19 -1 -8 3 -5 6 6 6 11 1 17 -2 13 -5z m136 -9 c72 -6 136 -12 442
-45 105 -11 267 -27 360 -35 187 -16 504 -48 690 -70 66 -8 140 -16 165 -19
273 -30 452 -50 590 -66 91 -11 171 -20 178 -20 6 0 12 -4 12 -8 0 -10 -27 -8
-220 12 -85 9 -189 19 -230 22 -41 4 -78 8 -81 10 -5 3 -158 20 -479 54 -52 6
-138 15 -190 21 -284 30 -487 51 -586 59 -249 21 -740 82 -752 95 -4 4 2 5 13
2 11 -3 51 -9 88 -12z m2513 -265 c20 0 33 -3 30 -8 -6 -11 -96 -2 -96 10 0 6
7 7 16 4 9 -3 31 -6 50 -6z m371 -46 c-3 -3 -12 -4 -19 -1 -8 3 -5 6 6 6 11 1
17 -2 13 -5z m433 -44 c0 -5 -2 -10 -4 -10 -3 0 -8 5 -11 10 -3 6 -1 10 4 10
6 0 11 -4 11 -10z m150 -10 c0 -5 -4 -10 -10 -10 -5 0 -10 5 -10 10 0 6 5 10
10 10 6 0 10 -4 10 -10z m50 -10 c0 -5 -2 -10 -4 -10 -3 0 -8 5 -11 10 -3 6
-1 10 4 10 6 0 11 -4 11 -10z"/>
<path d="M3241 4914 c0 -11 3 -14 6 -6 3 7 2 16 -1 19 -3 4 -6 -2 -5 -13z"/>
<path d="M3633 4485 c4 -8 2 -17 -4 -20 -5 -4 -7 -11 -3 -16 3 -5 9 -7 14 -4
5 3 16 -2 24 -11 22 -22 20 -8 -5 32 -21 35 -36 46 -26 19z"/>
<path d="M3462 4350 c0 -14 2 -19 5 -12 2 6 2 18 0 25 -3 6 -5 1 -5 -13z"/>
<path d="M3422 4250 c0 -14 2 -19 5 -12 2 6 2 18 0 25 -3 6 -5 1 -5 -13z"/>
<path d="M3208 3915 c-4 -11 -9 -31 -13 -45 l-7 -25 17 23 c9 12 15 32 13 45
-4 21 -4 21 -10 2z"/>
<path d="M3090 3730 c0 -5 5 -10 10 -10 6 0 10 5 10 10 0 6 -4 10 -10 10 -5 0
-10 -4 -10 -10z"/>
<path d="M1550 3086 c0 -9 5 -16 10 -16 6 0 10 4 10 9 0 6 -4 13 -10 16 -5 3
-10 -1 -10 -9z"/>
<path d="M4365 1890 c3 -5 8 -10 11 -10 2 0 4 5 4 10 0 6 -5 10 -11 10 -5 0
-7 -4 -4 -10z"/>
<path d="M4162 1756 c-1 -10 -8 -24 -15 -30 -11 -9 -11 -17 -1 -46 7 -19 13
-27 13 -17 1 9 6 17 12 17 5 0 7 -4 4 -10 -3 -5 -2 -10 4 -10 5 0 16 -3 24 -6
23 -8 10 34 -14 46 -10 6 -20 25 -22 43 -2 17 -5 23 -5 13z"/>
<path d="M4230 1689 c0 -5 5 -7 10 -4 6 3 10 8 10 11 0 2 -4 4 -10 4 -5 0 -10
-5 -10 -11z"/>
<path d="M4174 1430 c-6 -6 -29 -11 -52 -13 -23 -1 -47 -8 -54 -15 -16 -16
-37 -15 -44 3 -5 12 -8 12 -20 1 -7 -8 -19 -16 -24 -18 -20 -6 -18 -55 2 -72
32 -28 72 -20 102 19 15 20 54 49 87 65 32 17 59 32 59 35 0 9 -46 5 -56 -5z"/>
<path d="M4255 6870 c4 -6 24 -19 45 -30 49 -25 64 -8 18 20 -35 21 -74 27
-63 10z"/>
<path d="M1265 6850 c-22 -24 -9 -27 17 -3 20 18 25 4 6 -15 -9 -9 -7 -12 11
-12 12 0 19 4 16 10 -3 5 6 12 21 16 19 5 22 9 12 15 -23 15 -64 10 -83 -11z"/>
<path d="M4936 6783 c-8 -9 14 -33 30 -33 8 0 14 4 14 10 0 12 -35 31 -44 23z"/>
<path d="M4870 6732 c-8 -9 -14 -19 -13 -23 3 -10 -86 7 -102 21 -18 15 -94 8
-105 -11 -4 -6 -12 -9 -18 -5 -6 3 -13 2 -16 -3 -4 -5 -1 -13 5 -17 8 -4 7 -9
-2 -15 -10 -6 -10 -9 -2 -9 6 0 15 5 18 10 3 6 12 10 18 10 7 0 6 -4 -3 -10
-13 -9 -13 -10 0 -11 8 -1 28 0 43 1 16 1 44 -6 64 -15 21 -10 45 -14 60 -10
19 4 32 0 49 -16 25 -23 34 -14 12 10 -7 8 -8 12 -3 9 6 -3 20 -2 33 3 17 6
22 14 17 28 -4 14 1 20 21 25 32 8 21 25 -19 28 -15 1 -27 6 -27 10 0 13 -14
8 -30 -10z"/>
<path d="M1705 6706 c-53 -20 -59 -26 -35 -43 19 -13 24 -12 55 12 54 41 45
56 -20 31z"/>
<path d="M1810 6599 c0 -5 -3 -8 -8 -5 -4 2 -15 -2 -25 -9 -17 -13 -17 -14 3
-20 14 -5 19 -12 15 -23 -5 -15 -4 -15 12 0 15 14 20 14 31 2 19 -21 50 -17
63 7 10 20 9 21 -15 17 -14 -3 -26 -1 -26 4 0 13 -26 38 -39 38 -6 0 -11 -5
-11 -11z"/>
<path d="M4796 6600 c6 -6 28 -13 50 -16 37 -5 38 -4 20 10 -22 18 -87 23 -70
6z"/>
<path d="M1172 6588 c-1 -7 -4 -26 -7 -43 -5 -28 -4 -28 9 5 17 42 19 50 8 50
-5 0 -9 -6 -10 -12z"/>
<path d="M1202 6575 c0 -16 2 -22 5 -12 2 9 2 23 0 30 -3 6 -5 -1 -5 -18z"/>
<path d="M4338 6568 c2 -11 15 -26 28 -35 28 -18 33 -49 7 -38 -42 17 -51 17
-50 -2 1 -10 18 -25 39 -35 31 -14 82 -78 62 -78 -3 0 -28 19 -56 41 -27 23
-52 39 -56 35 -3 -4 7 -17 23 -30 18 -15 25 -27 20 -35 -6 -10 -13 -7 -29 11
-23 27 -70 50 -81 40 -3 -4 9 -19 27 -34 28 -24 31 -29 18 -39 -11 -7 -12 -12
-3 -15 7 -3 10 -11 7 -19 -3 -7 -1 -16 5 -20 6 -3 11 2 12 12 0 16 1 16 9 -2
5 -11 9 -28 9 -38 1 -14 -3 -16 -18 -7 -31 16 -43 13 -31 -9 5 -11 10 -22 10
-25 0 -11 -31 -6 -61 9 -27 14 -28 17 -14 31 12 13 19 14 30 4 8 -7 15 -8 15
-3 0 5 -12 16 -26 23 -21 12 -27 12 -33 1 -7 -10 -13 -10 -30 -2 -17 10 -21 9
-21 -4 0 -8 4 -15 9 -15 4 0 18 -23 30 -51 16 -40 18 -50 6 -45 -18 6 -18 -2
-2 -30 31 -53 55 -73 92 -77 27 -3 47 -13 67 -36 32 -36 37 -21 9 25 -21 34
-14 66 9 39 7 -8 19 -15 28 -15 12 0 11 5 -6 20 -24 22 -32 50 -9 32 19 -16
129 -73 133 -70 10 10 -11 47 -32 57 -25 11 -33 31 -12 31 12 0 108 -99 108
-112 0 -5 10 -8 23 -8 16 0 23 6 23 19 0 11 -5 19 -10 18 -5 -1 -15 9 -22 23
-7 13 -22 31 -32 40 -19 14 -92 114 -92 125 0 10 36 -9 58 -31 13 -13 27 -24
33 -24 10 0 -18 50 -36 62 -9 7 6 12 26 10 4 -1 5 7 2 17 -5 21 35 34 61 19
10 -6 16 -5 16 1 0 36 66 53 95 25 12 -12 19 -14 27 -6 8 8 5 17 -13 31 -24
19 -24 19 -4 41 19 21 19 22 1 36 -30 21 -13 26 29 8 33 -13 40 -14 52 -1 13
12 12 15 -2 21 -9 3 -13 2 -10 -4 3 -6 1 -10 -4 -10 -6 0 -11 5 -11 10 0 6 -6
10 -14 10 -8 0 -16 7 -20 15 -8 22 -96 59 -136 58 -19 -1 -44 -2 -55 -3 -11 0
-35 2 -52 6 -29 5 -33 4 -33 -14 0 -21 45 -57 60 -47 10 6 68 -40 60 -49 -9
-8 -120 46 -120 58 0 6 -21 19 -48 29 -26 10 -59 24 -73 31 -24 13 -26 12 -21
-6z m277 -28 c4 -6 -5 -10 -19 -10 -14 0 -26 5 -26 10 0 6 9 10 19 10 11 0 23
-4 26 -10z m-155 -110 c0 -5 -2 -10 -4 -10 -3 0 -8 5 -11 10 -3 6 -1 10 4 10
6 0 11 -4 11 -10z m80 -120 c0 -5 -2 -10 -4 -10 -3 0 -8 5 -11 10 -3 6 -1 10
4 10 6 0 11 -4 11 -10z m-300 -140 c0 -5 -2 -10 -4 -10 -3 0 -8 5 -11 10 -3 6
-1 10 4 10 6 0 11 -4 11 -10z"/>
<path d="M4447 6579 c7 -7 15 -10 18 -7 3 3 -2 9 -12 12 -14 6 -15 5 -6 -5z"/>
<path d="M4752 6558 c3 -7 13 -15 22 -16 12 -3 17 1 14 10 -3 7 -13 15 -22 16
-12 3 -17 -1 -14 -10z"/>
<path d="M2418 6534 c-33 -17 -36 -29 -9 -31 11 -1 27 9 36 23 18 27 12 29
-27 8z"/>
<path d="M6700 6546 c0 -4 7 -14 15 -22 8 -9 15 -11 15 -6 0 5 -7 15 -15 22
-8 7 -15 9 -15 6z"/>
<path d="M1200 6530 c0 -5 5 -10 11 -10 5 0 7 5 4 10 -3 6 -8 10 -11 10 -2 0
-4 -4 -4 -10z"/>
<path d="M1889 6510 c-31 -25 -12 -26 21 0 14 11 20 20 14 20 -7 0 -22 -9 -35
-20z"/>
<path d="M2105 6510 c-29 -19 -125 -53 -132 -47 -1 2 -4 16 -5 30 -1 15 -7 25
-13 23 -5 -2 -9 -8 -8 -14 1 -6 -11 -15 -27 -21 -33 -11 -41 -32 -10 -26 22 4
25 -2 11 -24 -6 -9 -6 -22 0 -34 8 -15 19 -17 54 -14 46 5 89 27 166 87 26 19
55 41 65 47 16 11 14 11 -10 3 -16 -6 -42 -20 -58 -31 -36 -26 -48 -19 -14 9
45 35 30 44 -19 12z"/>
<path d="M4186 6505 c4 -8 11 -15 16 -15 6 0 5 6 -2 15 -7 8 -14 15 -16 15 -2
0 -1 -7 2 -15z"/>
<path d="M1190 6496 c0 -8 4 -17 9 -20 5 -4 7 3 4 14 -6 23 -13 26 -13 6z"/>
<path d="M1150 6460 c0 -5 5 -10 10 -10 6 0 10 5 10 10 0 6 -4 10 -10 10 -5 0
-10 -4 -10 -10z"/>
<path d="M2194 6414 c-18 -14 -18 -15 4 -4 12 6 22 13 22 15 0 8 -5 6 -26 -11z"/>
<path d="M2280 6388 c-53 -30 -56 -36 -25 -48 27 -10 27 -11 10 -30 -18 -20
-11 -25 19 -14 9 3 16 16 16 28 0 11 9 36 20 54 23 37 12 40 -40 10z"/>
<path d="M6740 6377 c0 -16 -9 -42 -21 -58 -20 -28 -20 -29 -1 -29 11 0 24 6
29 13 17 21 21 66 7 84 -12 16 -13 15 -14 -10z"/>
<path d="M2030 6380 c-8 -5 -11 -12 -8 -15 4 -4 17 0 30 9 24 17 5 23 -22 6z"/>
<path d="M2344 6358 c-65 -76 -73 -110 -14 -68 15 11 30 17 33 14 3 -3 11 4
17 16 11 20 10 21 -9 11 -35 -19 -43 -12 -21 19 25 35 22 40 -6 8z"/>
<path d="M2124 6334 c-18 -14 -18 -15 4 -4 12 6 22 13 22 15 0 8 -5 6 -26 -11z"/>
<path d="M2408 6311 c-21 -22 -24 -30 -14 -34 9 -4 12 -14 9 -26 -5 -18 -3
-19 21 -8 14 7 28 18 31 25 3 8 0 10 -6 6 -9 -5 -10 4 -5 30 8 44 0 45 -36 7z"/>
<path d="M2532 6301 c-10 -29 -10 -32 4 -27 9 3 21 6 27 6 9 0 9 2 1 8 -7 4
-14 16 -16 27 -3 16 -6 14 -16 -14z"/>
<path d="M2636 6294 c-9 -22 -7 -94 2 -94 4 0 8 25 9 55 3 57 0 67 -11 39z"/>
<path d="M2706 6266 c-3 -13 -3 -33 1 -43 6 -16 5 -16 -10 -4 -15 12 -17 11
-17 -13 0 -14 -5 -26 -11 -26 -6 0 -9 -6 -6 -14 3 -8 2 -16 -4 -18 -5 -2 -12
-20 -16 -41 -5 -32 -3 -36 11 -31 11 4 16 1 16 -14 0 -11 7 -25 15 -32 13 -11
15 -6 15 39 0 34 4 50 11 46 6 -4 7 -19 4 -36 -4 -16 -2 -29 3 -29 5 0 13 -11
16 -25 4 -14 10 -25 16 -25 14 0 23 41 11 53 -8 8 -11 8 -11 -2 0 -7 -4 -9
-10 -6 -14 8 -13 72 1 81 11 6 9 30 -9 112 -12 53 -18 60 -26 28z"/>
<path d="M2483 6248 c-19 -25 -24 -38 -14 -38 11 0 35 39 28 46 -2 3 -9 -1
-14 -8z"/>
<path d="M2542 6219 c-8 -23 -15 -30 -20 -22 -5 9 -15 -2 -30 -32 -26 -53 -18
-58 21 -12 15 17 25 24 21 15 -3 -11 -1 -18 5 -18 16 0 23 22 19 65 l-3 38
-13 -34z"/>
<path d="M2587 6226 c-4 -10 -7 -25 -6 -34 0 -11 4 -9 10 7 5 13 8 29 6 35 -2
5 -6 2 -10 -8z"/>
<path d="M6850 6193 c8 -3 22 -11 30 -17 13 -10 13 -9 1 7 -7 9 -21 17 -30 16
-13 0 -14 -1 -1 -6z"/>
<path d="M2592 6174 c-8 -9 -10 -20 -4 -30 8 -14 10 -12 16 11 8 33 5 38 -12
19z"/>
<path d="M2770 6146 c0 -21 6 -36 15 -40 9 -3 15 0 15 9 0 8 5 15 10 15 6 0
10 -6 10 -14 0 -7 7 -19 15 -26 12 -10 15 -10 15 3 0 8 -7 20 -15 27 -8 7 -15
22 -15 33 0 11 -3 17 -6 14 -4 -3 -15 -2 -25 4 -17 9 -19 6 -19 -25z"/>
<path d="M4120 6164 c0 -14 57 -74 71 -74 8 0 20 -5 27 -12 32 -32 -9 41 -45
79 -11 13 -53 18 -53 7z"/>
<path d="M2401 6109 c-7 -12 -10 -23 -8 -26 3 -3 11 5 17 17 15 28 8 35 -9 9z"/>
<path d="M2562 6102 c-1 -13 -7 -32 -12 -42 -7 -13 -7 -21 2 -26 6 -4 8 -3 4
4 -3 5 -1 12 5 14 6 2 9 19 6 38 -2 20 -4 25 -5 12z"/>
<path d="M4605 6110 c3 -5 8 -10 11 -10 2 0 4 5 4 10 0 6 -5 10 -11 10 -5 0
-7 -4 -4 -10z"/>
<path d="M6975 6110 c3 -5 8 -10 11 -10 2 0 4 5 4 10 0 6 -5 10 -11 10 -5 0
-7 -4 -4 -10z"/>
<path d="M4515 6050 c-3 -5 -1 -18 4 -28 6 -11 7 -23 3 -27 -4 -5 -1 -5 5 -1
7 4 29 3 48 -3 19 -5 35 -8 35 -5 0 6 -74 73 -82 74 -4 0 -10 -4 -13 -10z"/>
<path d="M2511 6009 c-26 -28 -36 -58 -24 -70 12 -12 26 5 42 50 14 43 9 49
-18 20z"/>
<path d="M2576 6015 c-18 -18 -21 -30 -6 -20 6 4 10 -12 10 -42 0 -39 -7 -59
-35 -102 -19 -29 -35 -55 -35 -57 0 -2 -12 -23 -26 -45 -38 -61 -12 -38 31 27
20 30 39 53 42 50 3 -3 0 -12 -7 -21 -7 -9 -10 -18 -7 -21 3 -3 13 9 22 26 10
19 12 29 5 25 -8 -5 -11 -3 -8 6 3 8 11 14 19 14 8 0 18 10 24 23 5 12 13 22
17 22 5 0 8 15 7 33 0 25 -2 28 -8 13 -11 -28 -23 -4 -20 39 4 42 -4 51 -25
30z"/>
<path d="M2770 6008 c0 -4 4 -8 10 -8 5 0 7 -6 4 -14 -3 -8 -1 -23 5 -33 8
-15 10 -11 11 23 0 30 -4 41 -15 41 -8 0 -15 -4 -15 -9z"/>
<path d="M2431 5968 c-10 -30 -9 -31 4 -14 8 11 15 26 15 33 0 22 -8 14 -19
-19z"/>
<path d="M2237 5983 c-4 -3 -7 -11 -7 -17 0 -6 5 -5 12 2 6 6 9 14 7 17 -3 3
-9 2 -12 -2z"/>
<path d="M2375 5979 c-4 -6 -5 -12 -2 -15 2 -3 7 2 10 11 7 17 1 20 -8 4z"/>
<path d="M2270 5959 c0 -5 5 -7 10 -4 6 3 10 8 10 11 0 2 -4 4 -10 4 -5 0 -10
-5 -10 -11z"/>
<path d="M2557 5933 c-4 -3 -7 -11 -7 -17 0 -6 5 -5 12 2 6 6 9 14 7 17 -3 3
-9 2 -12 -2z"/>
<path d="M4340 5926 c0 -8 5 -18 10 -21 6 -3 10 1 10 9 0 8 -4 18 -10 21 -5 3
-10 -1 -10 -9z"/>
<path d="M2690 5904 c-23 -46 -23 -47 -11 -39 12 7 11 -17 -5 -95 -5 -25 -5
-25 11 -5 l17 20 -7 -20 c-16 -46 -16 -52 0 -52 9 0 21 12 27 26 6 14 12 22
13 16 2 -5 6 -23 10 -40 l8 -30 8 29 c5 17 4 37 -1 47 -14 24 -13 49 0 29 8
-13 10 -12 10 3 0 10 -7 28 -15 41 -9 13 -14 30 -13 37 2 7 -4 13 -12 14 -8 0
-17 11 -20 24 l-5 24 -15 -29z"/>
<path d="M2436 5905 c-9 -26 -7 -32 5 -12 6 10 9 21 6 23 -2 3 -7 -2 -11 -11z"/>
<path d="M4230 5872 c0 -5 10 -17 21 -28 22 -19 22 -19 10 3 -12 24 -31 39
-31 25z"/>
<path d="M4735 5870 c3 -5 11 -10 16 -10 6 0 7 5 4 10 -3 6 -11 10 -16 10 -6
0 -7 -4 -4 -10z"/>
<path d="M4490 5860 c0 -5 5 -10 10 -10 6 0 10 5 10 10 0 6 -4 10 -10 10 -5 0
-10 -4 -10 -10z"/>
<path d="M4605 5840 c3 -5 11 -10 16 -10 6 0 7 5 4 10 -3 6 -11 10 -16 10 -6
0 -7 -4 -4 -10z"/>
<path d="M4940 5840 c8 -5 20 -10 25 -10 6 0 3 5 -5 10 -8 5 -19 10 -25 10 -5
0 -3 -5 5 -10z"/>
<path d="M2562 5751 c-35 -68 -37 -75 -22 -66 14 9 61 106 57 119 -2 6 -18
-18 -35 -53z"/>
<path d="M2607 5781 c-9 -16 -17 -46 -17 -67 0 -34 2 -37 15 -23 13 12 33 119
23 119 -2 0 -11 -13 -21 -29z"/>
<path d="M2349 5783 c-30 -37 -56 -79 -63 -101 -17 -51 28 -4 70 73 23 45 20
60 -7 28z"/>
<path d="M2798 5764 c-5 -4 -8 -19 -8 -33 1 -23 2 -24 11 -8 11 19 9 53 -3 41z"/>
<path d="M4445 5750 c10 -11 22 -20 27 -20 4 0 3 9 -4 20 -7 11 -19 20 -27 20
-11 0 -10 -5 4 -20z"/>
<path d="M1987 5739 c-15 -12 -44 -29 -65 -40 -31 -15 -33 -18 -14 -19 25 0
112 55 112 70 0 13 0 13 -33 -11z"/>
<path d="M4130 5756 c0 -2 8 -10 18 -17 15 -13 16 -12 3 4 -13 16 -21 21 -21
13z"/>
<path d="M2284 5736 c-10 -8 -16 -17 -13 -20 3 -3 14 3 24 14 21 23 17 26 -11
6z"/>
<path d="M2851 5714 c-1 -28 18 -84 29 -84 3 0 10 16 16 35 9 28 8 35 -2 35
-8 0 -14 -5 -14 -12 0 -20 -18 5 -23 32 -4 22 -4 22 -6 -6z"/>
<path d="M4220 5705 c0 -13 50 -58 56 -52 4 4 -3 18 -16 32 -22 23 -40 32 -40
20z"/>
<path d="M4844 5701 c6 -8 81 -51 91 -51 3 0 5 5 5 10 0 6 -6 10 -13 10 -8 0
-24 9 -37 20 -23 20 -56 28 -46 11z"/>
<path d="M4905 5700 c3 -5 10 -10 16 -10 5 0 9 5 9 10 0 6 -7 10 -16 10 -8 0
-12 -4 -9 -10z"/>
<path d="M2467 5673 c-4 -3 -7 -11 -7 -17 0 -6 5 -5 12 2 6 6 9 14 7 17 -3 3
-9 2 -12 -2z"/>
<path d="M2800 5646 c0 -19 4 -38 10 -41 6 -4 9 10 8 34 -2 50 -18 55 -18 7z"/>
<path d="M2570 5650 c-6 -12 -9 -24 -7 -27 3 -2 11 5 17 17 6 12 9 24 7 27 -3
2 -11 -5 -17 -17z"/>
<path d="M2842 5614 c-1 -35 3 -55 13 -64 13 -10 15 -9 15 9 0 11 -4 21 -9 21
-6 0 -12 19 -14 43 -3 41 -4 41 -5 -9z"/>
<path d="M2245 5640 c-3 -5 -1 -10 4 -10 6 0 11 5 11 10 0 6 -2 10 -4 10 -3 0
-8 -4 -11 -10z"/>
<path d="M2410 5629 c0 -5 5 -7 10 -4 6 3 10 8 10 11 0 2 -4 4 -10 4 -5 0 -10
-5 -10 -11z"/>
<path d="M4250 5630 c0 -5 5 -10 11 -10 5 0 7 5 4 10 -3 6 -8 10 -11 10 -2 0
-4 -4 -4 -10z"/>
<path d="M2452 5618 c-7 -7 -12 -16 -12 -22 0 -5 -9 -20 -21 -32 -11 -12 -22
-35 -24 -51 -5 -44 -13 -74 -27 -92 -6 -9 -3 -7 9 4 30 30 67 95 53 95 -7 0
-3 11 8 28 10 15 21 39 24 55 6 31 6 31 -10 15z"/>
<path d="M2697 5623 c-4 -3 -7 -16 -6 -27 0 -19 1 -19 10 3 10 24 8 36 -4 24z"/>
<path d="M2581 5594 c-6 -11 -11 -15 -11 -11 0 12 -22 -14 -43 -51 -11 -19
-16 -36 -13 -39 3 -4 6 -1 6 5 0 11 54 72 64 72 2 0 6 -6 8 -14 2 -10 6 -11
13 -3 8 8 7 19 -1 36 -11 22 -12 22 -23 5z"/>
<path d="M2725 5591 c-3 -12 -4 -45 0 -73 7 -48 18 -54 28 -13 3 11 6 -5 7
-35 2 -49 3 -51 9 -20 l7 35 11 -30 c8 -21 12 -24 12 -11 1 19 1 19 22 0 l22
-19 -5 33 c-2 17 -1 32 4 32 4 0 8 7 8 15 0 12 -4 13 -19 5 -16 -8 -21 -6 -26
11 -6 17 -9 18 -16 8 -10 -16 -10 -16 -36 41 -19 40 -21 42 -28 21z"/>
<path d="M2380 5581 c-7 -15 -7 -21 0 -21 12 0 25 28 17 36 -3 3 -10 -4 -17
-15z"/>
<path d="M2167 5572 c-10 -10 -17 -22 -17 -26 0 -9 49 27 50 37 0 13 -17 7
-33 -11z"/>
<path d="M2682 5550 c0 -14 2 -19 5 -12 2 6 2 18 0 25 -3 6 -5 1 -5 -13z"/>
<path d="M4203 5545 c15 -14 33 -25 38 -25 6 0 -3 11 -19 25 -39 32 -56 32
-19 0z"/>
<path d="M2245 5549 c-11 -17 1 -21 15 -4 8 9 8 15 2 15 -6 0 -14 -5 -17 -11z"/>
<path d="M2050 5475 c-18 -19 -31 -37 -29 -40 3 -2 23 13 44 35 22 22 35 40
29 40 -6 0 -25 -16 -44 -35z"/>
<path d="M2865 5488 c-4 -9 -2 -24 3 -33 12 -23 22 2 12 30 -7 18 -9 18 -15 3z"/>
<path d="M2906 5468 c3 -13 10 -30 15 -38 7 -13 8 -13 9 0 0 27 -12 60 -22 60
-5 0 -6 -10 -2 -22z"/>
<path d="M2318 5442 c-49 -49 -65 -62 -79 -62 -11 0 -38 -28 -39 -41 0 -4 7
-10 16 -13 19 -7 94 63 94 88 0 9 4 16 9 16 5 0 16 11 25 25 22 34 17 32 -26
-13z"/>
<path d="M2570 5454 c0 -8 5 -12 10 -9 6 3 10 10 10 16 0 5 -4 9 -10 9 -5 0
-10 -7 -10 -16z"/>
<path d="M2161 5443 c-13 -10 -25 -31 -26 -45 -4 -32 -22 -68 -35 -68 -6 0
-10 -5 -10 -11 0 -6 6 -9 14 -6 8 3 17 1 19 -6 2 -7 12 4 22 23 10 19 29 50
43 68 13 17 20 32 14 32 -6 0 -12 7 -14 16 -3 14 -6 14 -27 -3z"/>
<path d="M2430 5405 c-8 -9 -8 -15 -2 -15 12 0 26 19 19 26 -2 2 -10 -2 -17
-11z"/>
<path d="M2069 5353 c-13 -15 -12 -15 9 -4 23 12 28 21 13 21 -5 0 -15 -7 -22
-17z"/>
<path d="M1942 5289 c-18 -12 -31 -24 -28 -26 9 -9 46 9 56 28 13 24 13 24
-28 -2z"/>
<path d="M2005 5270 c-31 -13 -91 -67 -83 -75 8 -8 108 62 108 76 0 10 1 10
-25 -1z"/>
<path d="M2055 5225 c-78 -53 -90 -63 -83 -70 9 -10 48 14 103 63 57 50 49 53
-20 7z"/>
<path d="M3286 5198 c-3 -14 1 -29 9 -38 13 -13 15 -10 15 23 0 41 -14 50 -24
15z"/>
<path d="M3347 5180 c-12 -51 -14 -79 -6 -74 11 6 22 69 16 86 -2 7 -7 2 -10
-12z"/>
<path d="M2078 5178 c-19 -16 -31 -48 -18 -48 5 0 16 14 25 30 17 33 16 36 -7
18z"/>
<path d="M1953 5111 c-25 -21 -20 -35 7 -21 18 10 35 40 22 40 -4 -1 -17 -9
-29 -19z"/>
<path d="M1975 5070 c-3 -5 -1 -10 4 -10 6 0 11 5 11 10 0 6 -2 10 -4 10 -3 0
-8 -4 -11 -10z"/>
<path d="M1820 5044 c-22 -12 -22 -14 -5 -14 24 0 51 16 39 22 -5 3 -20 -1
-34 -8z"/>
<path d="M2070 5039 c0 -5 5 -7 10 -4 6 3 10 8 10 11 0 2 -4 4 -10 4 -5 0 -10
-5 -10 -11z"/>
<path d="M1490 5021 c0 -15 39 -19 51 -5 9 11 6 14 -20 14 -17 0 -31 -4 -31
-9z"/>
<path d="M1504 4957 c-5 -12 -7 -26 -6 -30 1 -4 -2 -16 -8 -27 -15 -29 0 -30
49 -6 47 24 42 43 -7 32 l-27 -6 23 19 c22 19 22 20 3 30 -16 9 -21 7 -27 -12z"/>
<path d="M1629 4940 c-19 -15 -20 -19 -8 -20 9 0 27 9 40 20 19 15 20 19 8 20
-9 0 -27 -9 -40 -20z"/>
<path d="M1775 4918 c-11 -7 -27 -13 -35 -13 -41 -3 -78 -18 -74 -30 3 -7 -2
-19 -10 -28 -15 -15 -22 -37 -11 -37 15 0 53 24 49 31 -5 9 44 34 59 30 14 -3
46 19 57 39 13 23 -3 27 -35 8z"/>
<path d="M1600 4873 c-42 -13 -45 -16 -20 -23 22 -7 23 -8 4 -9 -22 -1 -51
-27 -41 -37 3 -3 17 2 31 12 41 26 41 10 1 -20 -27 -21 -33 -31 -26 -40 6 -7
8 -16 4 -19 -3 -4 3 -7 15 -7 12 0 22 6 22 13 0 8 11 19 25 25 27 13 35 35 9
25 -13 -5 -15 -2 -9 18 4 13 11 29 16 35 12 14 -10 33 -31 27z"/>
<path d="M1528 4843 c7 -3 16 -2 19 1 4 3 -2 6 -13 5 -11 0 -14 -3 -6 -6z"/>
<path d="M1611 4741 c-11 -7 -10 -11 5 -19 23 -12 44 -5 44 14 0 16 -27 18
-49 5z"/>
<path d="M1548 4713 c-10 -2 -18 -9 -18 -14 0 -14 16 -11 30 6 7 8 11 14 9 14
-2 -1 -12 -3 -21 -6z"/>
<path d="M1597 4693 c-10 -9 -9 -25 1 -19 4 2 14 1 22 -4 13 -8 11 -12 -7 -25
-26 -18 -31 -40 -8 -31 10 4 15 -1 15 -14 0 -11 5 -20 10 -20 6 0 10 -5 10
-11 0 -6 -7 -9 -15 -5 -8 3 -15 1 -15 -4 0 -6 10 -10 23 -10 19 -1 20 -2 6
-13 -9 -7 -14 -18 -11 -25 3 -10 7 -10 18 -2 21 18 38 1 20 -19 -12 -13 -13
-20 -4 -29 17 -17 64 -15 82 4 20 19 20 28 1 44 -9 7 -13 21 -10 31 5 15 1 19
-20 19 -22 0 -25 4 -20 20 8 24 -20 80 -40 80 -8 0 -15 6 -15 14 0 8 -7 17
-16 20 -19 7 -19 7 -27 -1z"/>
<path d="M1870 4499 c0 -5 5 -7 10 -4 6 3 10 8 10 11 0 2 -4 4 -10 4 -5 0 -10
-5 -10 -11z"/>
<path d="M2187 4483 c-4 -3 -7 -11 -7 -17 0 -6 5 -5 12 2 6 6 9 14 7 17 -3 3
-9 2 -12 -2z"/>
<path d="M1915 4460 c-8 -14 26 -20 46 -10 10 6 19 12 19 15 0 7 -61 2 -65 -5z"/>
<path d="M2099 4443 c-13 -16 -12 -17 4 -4 9 7 17 15 17 17 0 8 -8 3 -21 -13z"/>
<path d="M1802 4431 c-11 -7 -10 -10 3 -15 19 -7 35 0 35 15 0 11 -20 12 -38
0z"/>
<path d="M2057 4425 c-9 -8 -20 -15 -25 -15 -5 0 -15 -7 -22 -15 -11 -13 -10
-14 6 -8 30 12 68 42 62 48 -3 3 -13 -1 -21 -10z"/>
<path d="M1679 4404 c-13 -35 -7 -38 24 -13 32 24 34 39 7 39 -13 0 -24 -10
-31 -26z"/>
<path d="M1893 4387 c-3 -4 -12 -7 -21 -6 -24 4 -82 -11 -82 -21 0 -4 -9 -10
-20 -13 -31 -8 -15 -35 18 -30 26 3 26 3 5 -6 -13 -6 -23 -18 -23 -28 1 -17 1
-17 11 0 5 9 15 17 21 17 7 0 7 -4 -1 -13 -16 -20 -4 -26 31 -17 25 8 28 7 18
-5 -15 -18 -6 -19 22 -4 43 23 26 0 -19 -26 -58 -34 -61 -39 -57 -79 1 -17 3
-35 3 -39 1 -5 10 -5 21 -2 11 3 20 2 20 -3 0 -5 24 -12 53 -15 40 -4 57 -1
72 12 11 9 32 23 48 31 15 7 27 17 27 22 0 4 6 8 14 8 8 0 16 6 19 14 4 10 -9
7 -43 -10 -55 -28 -67 -30 -50 -9 7 8 19 15 26 15 26 0 135 101 117 107 -10 4
-10 10 -1 26 10 21 10 21 -8 6 -10 -8 -32 -23 -47 -33 -28 -17 -28 -17 -18 3
15 27 14 29 -14 23 -20 -3 -25 0 -25 15 0 16 -5 19 -25 15 -21 -4 -24 -1 -18
14 5 14 3 16 -11 11 -42 -16 -69 -20 -62 -8 4 6 13 11 20 11 8 0 19 6 25 14
10 11 7 14 -15 12 -14 0 -28 -5 -31 -9z m137 -117 c0 -5 -2 -10 -4 -10 -3 0
-8 5 -11 10 -3 6 -1 10 4 10 6 0 11 -4 11 -10z m-66 -29 c18 -7 16 -9 -12 -19
-25 -9 -32 -8 -32 2 0 25 12 30 44 17z"/>
<path d="M2255 4241 c-3 -5 -2 -12 3 -15 5 -3 9 1 9 9 0 17 -3 19 -12 6z"/>
<path d="M1680 4210 c0 -5 5 -10 10 -10 6 0 10 5 10 10 0 6 -4 10 -10 10 -5 0
-10 -4 -10 -10z"/>
<path d="M1658 4178 c-7 -18 2 -39 13 -33 5 4 6 -1 3 -9 -3 -9 -2 -16 4 -16
15 0 20 22 11 48 -9 24 -24 29 -31 10z"/>
<path d="M1665 4100 c-3 -5 -1 -10 4 -10 6 0 11 5 11 10 0 6 -2 10 -4 10 -3 0
-8 -4 -11 -10z"/>
<path d="M1676 4084 c-11 -7 -16 -17 -13 -21 4 -4 15 1 24 10 22 21 14 30 -11
11z"/>
<path d="M1967 4055 c-27 -13 -33 -35 -10 -35 16 -1 16 -2 3 -13 -15 -13 -40
-52 -40 -63 0 -19 62 10 101 46 l44 42 -32 -6 c-38 -6 -43 5 -10 27 l22 16
-29 -2 c-16 -1 -38 -6 -49 -12z"/>
<path d="M2015 3940 c-3 -5 -1 -10 4 -10 6 0 11 5 11 10 0 6 -2 10 -4 10 -3 0
-8 -4 -11 -10z"/>
<path d="M1530 3920 c-9 -6 -10 -10 -3 -10 6 0 15 5 18 10 8 12 4 12 -15 0z"/>
<path d="M2023 3918 c-12 -6 -24 -17 -27 -24 -4 -12 0 -11 24 1 17 9 30 20 30
25 0 12 1 12 -27 -2z"/>
<path d="M2025 3849 c-45 -35 -70 -59 -61 -59 11 0 116 51 116 56 0 3 -4 3 -9
-1 -5 -3 -11 2 -13 11 -3 13 -8 12 -33 -7z"/>
<path d="M2321 3633 c-1 -6 -4 -20 -7 -30 -5 -17 -5 -17 6 0 6 10 9 23 6 30
-3 9 -5 9 -5 0z"/>
<path d="M1307 3532 c-26 -28 -22 -52 4 -25 12 11 20 26 17 33 -2 7 -9 5 -21
-8z"/>
<path d="M1470 3431 c-17 -33 -12 -46 10 -26 21 19 27 45 10 45 -5 0 -14 -9
-20 -19z"/>
<path d="M1187 3422 c-19 -20 -23 -57 -6 -47 11 8 32 56 26 61 -2 2 -11 -4
-20 -14z"/>
<path d="M1501 3322 c-13 -25 -14 -42 -2 -42 10 0 25 50 17 57 -2 3 -9 -4 -15
-15z"/>
<path d="M1116 3313 c-4 -5 -13 -8 -18 -8 -15 0 -91 -112 -86 -127 3 -7 16 0
34 18 34 33 94 109 94 118 0 8 -15 8 -24 -1z"/>
<path d="M1025 3159 c-11 -17 1 -21 15 -4 8 9 8 15 2 15 -6 0 -14 -5 -17 -11z"/>
<path d="M1179 3093 c-1 -5 -1 -12 0 -16 1 -5 -3 -6 -7 -3 -5 3 -17 -3 -27
-14 -18 -19 -17 -20 8 -20 19 0 31 8 42 30 14 27 14 30 0 30 -8 0 -16 -3 -16
-7z"/>
<path d="M1231 3008 c-5 -13 -7 -25 -5 -27 5 -6 34 26 34 38 0 20 -20 11 -29
-11z"/>
<path d="M1177 2993 c-4 -3 -7 -11 -7 -17 0 -6 5 -5 12 2 6 6 9 14 7 17 -3 3
-9 2 -12 -2z"/>
<path d="M1147 2786 c-19 -40 -15 -45 12 -18 12 10 16 24 12 35 -6 15 -10 12
-24 -17z"/>
<path d="M2466 2733 c-22 -44 -41 -57 -57 -40 -16 17 -70 9 -86 -12 -18 -25
24 -37 49 -15 17 17 18 16 12 -13 -7 -35 11 -53 31 -32 18 19 77 131 71 136
-3 3 -11 -8 -20 -24z"/>
<path d="M1256 2713 c-6 -14 -5 -15 5 -6 7 7 10 15 7 18 -3 3 -9 -2 -12 -12z"/>
<path d="M2320 2625 c0 -9 6 -12 15 -9 8 4 12 10 9 15 -8 14 -24 10 -24 -6z"/>
<path d="M2470 2560 c0 -5 5 -10 11 -10 5 0 7 5 4 10 -3 6 -8 10 -11 10 -2 0
-4 -4 -4 -10z"/>
<path d="M1966 2462 c-3 -5 -1 -22 4 -38 8 -29 8 -29 9 9 1 36 -3 45 -13 29z"/>
<path d="M2451 2444 c0 -11 3 -14 6 -6 3 7 2 16 -1 19 -3 4 -6 -2 -5 -13z"/>
<path d="M1950 2377 c0 -14 5 -29 10 -32 7 -4 8 3 4 22 -9 38 -14 42 -14 10z"/>
<path d="M2494 2319 c-3 -6 -1 -16 5 -22 8 -8 11 -5 11 11 0 24 -5 28 -16 11z"/>
<path d="M2813 1942 c-3 -12 -10 -22 -17 -22 -18 -1 -53 -34 -61 -58 -6 -21
-4 -22 22 -16 15 4 29 7 29 8 9 7 43 101 39 105 -3 3 -8 -5 -12 -17z"/>
<path d="M2847 1733 c-4 -3 -7 -17 -7 -31 0 -21 2 -22 15 -12 8 7 15 9 15 4 0
-5 4 -2 10 6 14 22 -15 52 -33 33z"/>
<path d="M2602 1128 c5 -15 28 -18 29 -3 0 6 -7 12 -17 13 -10 3 -15 -1 -12
-10z"/>
<path d="M2860 1104 c0 -8 5 -12 10 -9 6 3 10 10 10 16 0 5 -4 9 -10 9 -5 0
-10 -7 -10 -16z"/>
<path d="M2757 1099 c-10 -6 -25 -8 -32 -5 -23 8 -26 -10 -5 -29 17 -16 21
-16 49 -2 17 9 31 11 31 6 0 -5 9 -9 21 -9 14 0 19 5 17 18 -2 9 -11 16 -21
16 -9 -1 -17 2 -17 7 0 12 -21 11 -43 -2z"/>
<path d="M2642 1049 c1 -12 9 -24 16 -27 9 -3 13 3 10 19 -1 12 -9 24 -16 27
-9 3 -13 -3 -10 -19z"/>
</g>
</svg>
